<?xml version="1.0" standalone="no"?>
<!DOCTYPE svg PUBLIC "-//W3C//DTD SVG 20010904//EN"
 "http://www.w3.org/TR/2001/REC-SVG-20010904/DTD/svg10.dtd">
<svg version="1.0" xmlns="http://www.w3.org/2000/svg"
 width="1491.000000pt" height="1491.000000pt" viewBox="0 0 1491.000000 1491.000000"
 preserveAspectRatio="xMidYMid meet">
<metadata>
Created by potrace 1.11, written by Peter Selinger 2001-2013
</metadata>
<g transform="translate(0.000000,1491.000000) scale(0.100000,-0.100000)"
fill="#000000" stroke="none">
<path d="M7015 13799 c-4 -6 -5 -12 -2 -15 2 -3 7 2 10 11 7 17 1 20 -8 4z"/>
<path d="M7105 13802 c19 -13 14 -29 -8 -26 -12 1 -29 3 -37 3 -13 1 -13 2 0
11 8 5 11 10 7 10 -4 0 -18 -7 -31 -16 -17 -10 -26 -12 -31 -4 -5 8 -11 7 -23
-2 -12 -10 -14 -10 -8 0 4 6 2 12 -3 12 -6 0 -11 -3 -11 -7 0 -5 -11 -8 -24
-8 -13 0 -22 5 -19 11 2 6 -3 11 -11 11 -8 0 -12 -5 -10 -11 3 -7 -17 -10 -61
-8 -46 2 -65 -1 -65 -10 0 -6 -7 -3 -16 8 -8 10 -13 14 -10 8 3 -7 -12 -10
-47 -9 -29 1 -57 -2 -64 -7 -7 -5 -14 -5 -18 2 -9 15 -25 12 -19 -4 3 -8 0
-17 -7 -22 -8 -4 -10 -3 -5 4 12 20 -4 35 -22 20 -12 -10 -14 -10 -8 -1 5 9 2
11 -8 7 -9 -3 -14 -10 -13 -14 1 -4 -2 -8 -8 -8 -5 0 -9 4 -7 10 3 10 -36 1
-54 -13 -6 -5 -19 -2 -32 7 -20 14 -22 14 -22 -3 -1 -17 -1 -17 -11 0 -9 15
-13 16 -26 5 -17 -14 -46 -20 -38 -8 3 5 0 12 -6 16 -7 4 -9 3 -6 -2 3 -6 2
-16 -4 -24 -7 -12 -9 -12 -9 4 0 13 -3 16 -12 8 -7 -5 -23 -8 -36 -6 -14 3
-21 0 -17 -6 10 -17 -7 -11 -22 8 -8 9 -12 12 -9 6 3 -7 -3 -14 -14 -17 -11
-3 -18 -2 -16 2 3 4 -8 7 -24 7 -16 0 -27 -3 -24 -7 2 -5 12 -6 22 -3 14 5 15
4 2 -5 -11 -7 -21 -6 -39 5 -13 9 -21 12 -18 7 3 -5 -4 -15 -16 -23 -20 -12
-21 -12 -9 3 10 12 10 17 1 23 -8 4 -9 3 -5 -4 4 -7 6 -12 4 -12 -2 -1 -20 -3
-42 -6 -29 -5 -37 -3 -31 7 6 8 4 10 -4 5 -7 -5 -10 -15 -7 -25 5 -13 4 -13
-8 2 -13 17 -14 17 -21 0 -5 -13 -9 -14 -12 -5 -4 10 -8 10 -21 0 -12 -10 -14
-10 -8 0 4 6 2 12 -3 12 -6 0 -11 -5 -11 -11 0 -8 -4 -8 -14 0 -10 9 -16 9
-21 1 -5 -8 -11 -7 -23 2 -10 8 -13 9 -9 1 4 -6 3 -14 -2 -17 -5 -3 -11 1 -15
9 -3 8 -12 12 -21 9 -8 -3 -12 -11 -9 -16 4 -6 10 -5 16 3 8 12 9 12 6 0 -2
-8 -14 -16 -27 -18 -12 -2 -20 1 -17 6 3 5 -1 11 -9 14 -9 4 -12 1 -8 -9 3 -8
2 -14 -3 -13 -25 4 -45 -2 -38 -13 5 -7 3 -8 -6 -3 -10 6 -9 11 5 22 11 7 14
13 8 13 -7 0 -15 -4 -18 -10 -3 -5 -16 -10 -28 -10 -12 0 -32 -1 -45 -1 -15 0
-20 -4 -15 -12 4 -7 -2 -5 -12 3 -10 8 -16 10 -12 4 11 -19 -19 -24 -42 -8
-18 13 -20 13 -15 0 7 -17 -11 -30 -28 -19 -20 12 -38 12 -38 1 0 -6 -12 -8
-30 -5 -17 4 -32 2 -36 -5 -5 -7 -3 -8 6 -3 8 5 11 4 6 -3 -3 -6 -15 -9 -26
-7 -11 2 -22 0 -25 -6 -4 -5 -14 -5 -27 2 -16 9 -19 8 -13 -2 6 -8 4 -11 -7
-6 -9 3 -21 0 -27 -6 -9 -9 -14 -8 -21 3 -8 13 -12 12 -25 -5 -9 -11 -13 -14
-9 -6 4 9 2 12 -7 9 -8 -3 -13 -10 -12 -15 1 -5 -7 -9 -18 -9 -10 0 -19 4 -19
9 0 4 -5 5 -10 2 -6 -4 -7 -11 -4 -17 5 -8 1 -9 -12 -3 -27 11 -56 8 -65 -7
-6 -9 -10 -8 -15 5 -6 16 -9 15 -24 -8 -12 -19 -19 -23 -23 -13 -5 11 -7 11
-15 -1 -8 -11 -10 -11 -15 0 -4 9 -6 10 -6 2 -1 -7 -8 -10 -18 -6 -12 5 -14 3
-8 -7 6 -10 4 -11 -6 -4 -21 13 -40 14 -32 1 4 -6 0 -8 -11 -4 -10 4 -19 1
-22 -7 -3 -8 -17 -12 -35 -11 -22 2 -29 -1 -25 -11 3 -8 0 -11 -9 -7 -8 3 -13
8 -10 12 2 4 -2 8 -10 8 -10 0 -11 -5 -4 -18 6 -12 5 -20 -3 -25 -6 -4 -8 -3
-4 4 3 6 2 13 -4 17 -5 3 -10 0 -10 -7 0 -9 -3 -9 -10 2 -7 12 -10 12 -10 1 0
-7 -6 -11 -15 -7 -8 3 -15 2 -15 -3 0 -5 -12 -7 -26 -5 -15 1 -32 -5 -42 -16
-13 -16 -19 -17 -31 -7 -12 10 -13 9 -7 -1 6 -10 -1 -12 -27 -9 -28 3 -34 1
-29 -11 4 -12 1 -14 -12 -9 -10 4 -27 0 -39 -8 -12 -8 -30 -15 -40 -15 -12 0
-16 -4 -11 -12 6 -10 4 -10 -8 0 -13 10 -18 10 -24 1 -5 -8 -3 -10 7 -4 8 5
11 4 6 -1 -5 -5 -12 -9 -15 -10 -35 -2 -81 -20 -102 -38 -13 -11 -19 -14 -12
-5 9 13 9 16 -3 16 -8 0 -15 -7 -15 -16 0 -14 -2 -14 -10 -1 -8 13 -10 12 -10
-3 0 -15 -3 -16 -22 -6 -22 12 -22 11 -8 -6 14 -17 14 -18 -10 -5 -24 13 -24
12 -10 -5 10 -12 10 -16 2 -11 -7 4 -19 2 -27 -4 -8 -7 -26 -10 -39 -8 -15 3
-24 1 -23 -6 1 -6 -4 -10 -12 -8 -11 2 -12 0 -3 -10 8 -11 7 -14 -8 -14 -10 0
-16 4 -13 9 3 5 -4 4 -14 -2 -11 -6 -23 -7 -27 -3 -4 3 -4 -1 0 -11 4 -11 1
-17 -10 -18 -9 -1 -20 -3 -26 -4 -5 -1 -15 -3 -21 -4 -5 0 -7 -5 -4 -11 6 -9
2 -11 -35 -14 -8 -1 -14 -8 -12 -15 1 -7 -2 -10 -7 -7 -5 4 -17 -1 -25 -10 -9
-9 -16 -11 -16 -4 0 6 -5 8 -10 5 -6 -4 -7 -12 -3 -18 4 -7 0 -7 -10 1 -14 12
-16 11 -12 -8 3 -18 2 -20 -10 -10 -11 10 -15 10 -15 1 0 -7 -5 -9 -12 -5 -7
5 -9 2 -5 -9 4 -11 2 -14 -9 -10 -8 3 -20 0 -28 -6 -7 -6 -16 -8 -19 -4 -4 3
-7 1 -7 -5 0 -7 -3 -11 -7 -9 -5 1 -9 -2 -10 -7 -2 -11 -24 -26 -38 -26 -5 0
-3 5 5 10 11 7 12 10 2 10 -8 0 -16 -9 -19 -21 -4 -15 -8 -17 -14 -8 -6 10
-11 7 -18 -11 -5 -14 -10 -19 -10 -11 -1 8 -16 -2 -36 -23 -19 -21 -35 -34
-35 -30 0 3 -7 1 -15 -6 -13 -11 -15 -10 -10 6 4 11 0 9 -8 -6 -9 -14 -14 -28
-11 -31 2 -3 -8 -5 -22 -3 -19 2 -23 -1 -15 -10 8 -10 4 -12 -19 -11 -24 1
-28 -1 -18 -12 9 -11 8 -13 -3 -11 -8 2 -13 -3 -11 -11 3 -12 0 -12 -12 -1
-10 7 -16 8 -16 2 0 -6 -7 -18 -16 -27 -13 -13 -19 -13 -32 -3 -10 8 -13 9 -9
1 4 -6 -6 -22 -24 -37 -17 -14 -27 -26 -24 -26 4 0 2 -7 -5 -15 -7 -9 -19 -14
-27 -11 -8 3 -11 1 -8 -4 3 -6 2 -10 -4 -10 -5 0 -13 -9 -16 -20 -4 -13 -15
-20 -33 -20 -19 0 -23 -3 -14 -9 11 -6 10 -10 -5 -16 -10 -5 -22 -7 -27 -6 -5
1 -3 -5 4 -14 11 -13 10 -15 -4 -9 -9 3 -16 1 -16 -6 0 -6 -4 -8 -10 -5 -10 6
-13 -5 -11 -35 0 -9 -2 -10 -5 -3 -6 14 -54 -4 -54 -20 0 -6 5 -6 13 -1 7 5 3
0 -10 -11 -13 -12 -23 -26 -23 -32 0 -6 -8 -17 -17 -24 -14 -12 -16 -12 -8 0
5 10 4 12 -3 7 -7 -4 -12 -14 -12 -22 0 -8 -6 -14 -14 -14 -8 0 -18 -5 -22
-12 -5 -8 -2 -9 12 -4 18 7 18 6 -1 -12 -11 -11 -23 -18 -27 -15 -5 2 -9 -1
-9 -6 -1 -6 -3 -15 -4 -21 -1 -5 -3 -13 -4 -17 -1 -5 -5 -1 -10 6 -8 12 -11 9
-16 -12 -4 -15 -13 -27 -21 -27 -8 0 -14 -5 -14 -11 0 -5 5 -7 12 -3 7 5 8 3
4 -5 -5 -7 -10 -10 -13 -7 -10 10 -34 -24 -27 -36 5 -8 0 -7 -11 2 -10 8 -16
10 -12 3 4 -6 2 -15 -4 -18 -5 -4 -8 -13 -5 -21 4 -9 -2 -14 -17 -14 -16 0
-18 -3 -9 -9 11 -7 10 -9 -3 -15 -9 -3 -13 -10 -10 -16 3 -5 -1 -10 -9 -10
-10 0 -14 -8 -11 -27 2 -16 2 -22 -2 -15 -4 10 -9 9 -24 -4 -15 -14 -17 -20
-7 -33 7 -9 9 -13 4 -9 -10 8 -36 -14 -29 -25 2 -4 -2 -10 -11 -13 -9 -3 -12
-12 -9 -21 4 -11 2 -14 -5 -9 -11 6 -17 -5 -13 -26 0 -5 -7 -8 -17 -8 -14 0
-15 -2 -2 -10 13 -8 13 -10 -1 -10 -9 0 -21 -16 -29 -40 -7 -21 -17 -37 -21
-34 -4 2 -6 -5 -4 -16 2 -11 -1 -20 -7 -20 -5 0 -8 -7 -5 -15 4 -8 1 -17 -5
-21 -7 -5 -8 -2 -3 6 5 9 4 11 -4 6 -9 -6 -9 -11 -1 -21 10 -12 8 -13 -10 -10
-17 3 -19 1 -11 -9 9 -10 8 -15 -5 -20 -9 -3 -14 -12 -11 -20 3 -8 -3 -23 -14
-35 -13 -14 -15 -21 -7 -21 9 0 10 -2 2 -8 -7 -4 -14 -16 -16 -27 -2 -11 -11
-19 -21 -19 -10 1 -14 -3 -10 -9 12 -20 9 -55 -4 -50 -8 3 -13 -4 -14 -21 -2
-43 -5 -51 -14 -49 -6 1 -11 -13 -11 -30 -1 -17 -6 -33 -13 -35 -7 -2 -8 -9
-1 -23 8 -15 7 -17 -4 -13 -11 4 -14 0 -11 -15 2 -12 -1 -21 -6 -21 -6 0 -7
-4 -4 -10 3 -5 -1 -19 -9 -31 -8 -12 -12 -27 -10 -34 3 -7 0 -16 -6 -20 -9 -6
-9 -10 1 -16 10 -6 7 -9 -11 -9 -20 0 -22 -2 -10 -11 11 -8 12 -12 3 -16 -7
-2 -13 -9 -13 -14 0 -6 6 -7 13 -3 9 6 9 4 -1 -7 -6 -7 -12 -24 -12 -38 0 -21
-2 -23 -10 -11 -13 20 -13 4 0 -20 7 -13 7 -21 -2 -26 -7 -5 -8 -3 -3 6 5 9 4
11 -4 6 -9 -6 -9 -11 0 -22 6 -8 7 -14 2 -14 -6 0 -9 -12 -7 -26 2 -20 -1 -24
-13 -20 -12 5 -13 3 -5 -7 6 -7 7 -18 3 -26 -5 -7 -7 -23 -5 -37 1 -13 -2 -24
-7 -24 -5 0 -8 -3 -8 -7 4 -22 -2 -54 -9 -50 -4 3 -8 -6 -8 -19 -1 -15 2 -22
10 -17 8 4 8 2 -1 -7 -6 -7 -9 -19 -6 -28 5 -11 3 -13 -8 -7 -8 4 -11 5 -7 0
4 -4 2 -17 -4 -29 -11 -20 -10 -20 8 -6 18 15 18 14 1 -12 -20 -32 -22 -42 -4
-32 9 5 9 4 0 -6 -6 -7 -9 -19 -6 -28 5 -11 3 -13 -8 -7 -12 8 -12 6 0 -8 7
-9 10 -17 5 -17 -5 0 -9 -13 -10 -30 -1 -18 3 -27 10 -24 6 3 2 -2 -8 -10 -13
-11 -15 -16 -6 -16 9 0 8 -6 -6 -22 -15 -19 -16 -20 -1 -9 22 17 22 3 0 -22
-10 -11 -13 -17 -6 -14 6 4 14 3 18 -3 3 -5 -1 -10 -11 -10 -13 0 -14 -3 -5
-14 9 -11 9 -16 0 -22 -8 -5 -9 -3 -4 6 5 9 4 11 -4 6 -6 -4 -8 -13 -4 -19 10
-16 10 -38 0 -59 -5 -12 -4 -18 4 -18 8 0 9 -4 0 -13 -8 -10 -7 -17 2 -26 9
-10 9 -11 -4 -6 -10 4 -20 1 -25 -6 -4 -7 -3 -10 3 -6 6 4 13 -2 16 -13 3 -11
1 -20 -5 -20 -5 0 -6 -5 -3 -10 4 -6 2 -17 -4 -24 -8 -10 -7 -17 4 -26 17 -14
20 -30 4 -30 -5 0 -7 5 -3 12 5 7 3 8 -5 4 -9 -6 -8 -13 6 -29 10 -11 13 -17
7 -14 -7 4 -15 0 -18 -9 -3 -8 -2 -13 3 -10 5 3 12 -1 15 -10 3 -8 2 -12 -4
-9 -6 3 -10 2 -10 -4 0 -5 5 -13 11 -16 7 -5 5 -13 -6 -25 -11 -12 -13 -20 -5
-25 8 -5 8 -11 -1 -21 -9 -11 -8 -14 2 -14 11 0 11 -2 -1 -10 -13 -9 -13 -10
0 -10 9 0 11 -3 5 -8 -9 -6 -11 -22 -5 -47 1 -5 1 -14 0 -20 -8 -30 -5 -95 4
-95 8 0 8 -3 1 -8 -9 -6 -13 -70 -5 -97 1 -5 1 -12 0 -15 -6 -17 -5 -52 2 -56
5 -3 4 -12 -3 -20 -9 -11 -9 -14 0 -14 8 0 9 -6 3 -17 -10 -22 -9 -63 1 -80 5
-8 3 -13 -4 -13 -9 0 -9 -3 0 -14 9 -10 9 -16 1 -21 -8 -5 -8 -11 1 -21 9 -11
8 -14 -2 -14 -8 -1 -3 -8 11 -16 15 -9 18 -13 6 -9 -16 5 -17 3 -6 -10 8 -10
9 -15 1 -15 -6 0 -11 -5 -11 -11 0 -5 5 -7 11 -3 8 4 9 -1 4 -16 -5 -15 -4
-20 4 -16 7 5 9 1 5 -8 -3 -9 -11 -13 -18 -10 -6 3 -4 0 4 -8 11 -9 15 -34 15
-88 0 -41 4 -78 10 -82 6 -5 4 -8 -5 -8 -13 0 -13 -1 0 -10 12 -8 13 -13 3
-29 -10 -16 -10 -19 0 -15 8 3 14 -2 14 -11 0 -10 -6 -14 -16 -10 -11 3 -11 1
3 -9 11 -9 16 -22 13 -31 -4 -8 -2 -15 3 -15 6 0 10 -5 10 -11 0 -5 -5 -7 -11
-3 -8 4 -8 1 -1 -12 15 -28 15 -36 0 -45 -10 -7 -10 -9 3 -9 15 0 17 -9 21
-90 1 -8 6 -18 12 -22 7 -5 6 -8 -3 -8 -11 0 -11 -3 0 -17 12 -15 12 -16 -1
-8 -12 7 -13 6 -3 -7 7 -8 10 -18 6 -21 -3 -4 -1 -7 5 -7 6 0 9 -7 5 -17 -4
-9 -2 -14 3 -11 5 4 10 -9 11 -28 5 -62 7 -74 16 -74 5 0 4 -7 -3 -16 -8 -8
-9 -14 -4 -13 21 4 28 -2 14 -11 -10 -6 -11 -10 -2 -10 6 0 12 -5 12 -11 0 -5
-6 -7 -13 -3 -9 5 -9 4 0 -6 6 -7 9 -19 6 -28 -5 -11 -3 -13 7 -7 10 6 12 4 7
-8 -3 -10 -2 -17 2 -17 5 0 8 -8 7 -17 -2 -10 2 -21 8 -25 8 -5 7 -8 -2 -8 -7
0 -10 -5 -7 -10 4 -6 11 -8 16 -5 5 3 6 -2 2 -11 -4 -12 -3 -15 5 -10 15 9 15
1 2 -23 -7 -14 -4 -24 11 -40 12 -12 18 -29 15 -37 -3 -7 0 -14 6 -14 6 0 5
-6 -3 -17 -12 -14 -12 -16 0 -8 11 6 13 3 9 -13 -4 -12 -1 -25 4 -29 6 -3 8
-1 4 5 -3 6 -2 13 3 17 6 3 8 -6 5 -21 -3 -17 2 -34 13 -47 13 -15 14 -18 3
-13 -8 4 -7 1 3 -7 14 -11 15 -16 5 -20 -10 -4 -10 -6 0 -6 6 -1 12 -9 12 -18
0 -9 8 -25 17 -36 13 -15 14 -19 3 -13 -8 4 -7 1 3 -7 14 -11 15 -16 5 -20 -9
-4 -7 -6 4 -6 11 -1 15 -6 11 -16 -3 -9 2 -22 13 -30 18 -14 18 -14 -1 -15
-19 -1 -19 -2 2 -12 12 -6 24 -17 27 -25 3 -8 1 -11 -4 -8 -6 3 -10 2 -10 -4
0 -6 9 -15 20 -21 11 -6 20 -15 20 -21 0 -6 -6 -7 -12 -3 -7 4 1 -8 17 -26 17
-18 25 -30 18 -27 -8 5 -8 1 0 -17 7 -13 16 -22 21 -19 5 4 7 -3 4 -15 -4 -12
-1 -25 4 -29 7 -3 8 -1 4 5 -4 7 -5 12 -2 12 3 0 10 -10 17 -21 8 -16 8 -20
-1 -14 -9 6 -9 2 -1 -14 7 -11 16 -21 22 -21 6 0 8 -4 4 -9 -3 -5 4 -16 16
-24 13 -9 16 -17 10 -22 -7 -4 -1 -15 14 -29 14 -13 22 -26 18 -29 -3 -4 -1
-7 6 -7 7 0 9 -4 6 -10 -3 -5 2 -10 11 -10 10 0 14 -3 11 -7 -4 -3 1 -12 11
-20 9 -8 11 -11 4 -8 -11 6 -11 3 -1 -13 7 -12 17 -18 21 -16 7 5 12 -10 9
-28 0 -5 4 -8 10 -8 5 0 7 -4 4 -10 -3 -5 1 -10 9 -10 9 0 16 -9 16 -20 0 -11
5 -20 11 -20 5 0 7 5 4 10 -10 16 1 11 16 -7 10 -11 10 -14 2 -9 -7 4 -13 2
-13 -3 0 -6 5 -11 10 -11 6 0 10 -7 10 -16 0 -8 4 -12 10 -9 6 3 10 -1 10 -10
0 -9 5 -13 10 -10 5 3 10 -3 10 -14 0 -12 5 -21 11 -21 5 0 7 -4 4 -10 -4 -6
1 -7 11 -3 11 4 15 3 10 -5 -3 -6 13 -31 39 -56 25 -25 45 -51 45 -58 0 -9 3
-8 10 2 8 12 10 12 10 1 0 -20 49 -63 62 -55 7 4 8 2 4 -4 -4 -7 -2 -20 3 -29
6 -10 11 -14 11 -8 0 5 8 -2 17 -15 10 -14 17 -29 15 -33 -1 -5 2 -6 8 -2 6 3
24 -8 41 -24 17 -17 36 -28 42 -24 7 3 9 3 5 -2 -9 -10 31 -47 43 -39 5 3 9
-4 9 -15 0 -14 6 -21 19 -21 11 0 23 -5 27 -12 5 -7 3 -8 -6 -3 -9 6 -11 4 -6
-4 5 -7 15 -10 24 -6 9 3 13 3 10 -1 -12 -11 21 -36 39 -30 14 6 14 4 2 -11
-8 -9 -9 -14 -3 -10 7 4 17 0 24 -8 7 -8 16 -15 21 -15 5 0 18 -9 29 -20 11
-11 27 -20 36 -20 8 0 12 -4 9 -10 -3 -5 3 -10 14 -10 11 0 26 -9 34 -20 8
-11 17 -17 22 -12 4 4 6 0 3 -8 -4 -10 0 -16 11 -16 29 -1 46 -9 62 -26 9 -10
24 -18 33 -18 9 0 16 -3 16 -8 0 -4 9 -13 21 -20 15 -10 24 -10 34 -2 11 9 12
7 8 -11 -4 -15 -3 -20 5 -15 7 4 12 2 12 -4 0 -6 5 -8 12 -4 6 4 16 1 22 -7
19 -24 66 -51 66 -37 0 6 6 3 14 -8 8 -10 18 -16 22 -12 4 4 13 0 21 -10 10
-11 12 -12 8 -2 -4 10 -2 9 8 -2 8 -10 17 -15 20 -11 4 3 7 2 7 -4 0 -6 8 -10
18 -10 33 0 42 -3 42 -14 0 -8 -6 -7 -17 2 -16 13 -17 12 -4 -4 8 -9 16 -15
19 -12 3 3 11 0 18 -6 8 -7 14 -6 20 2 5 8 3 9 -6 4 -9 -5 -11 -4 -6 4 4 6 12
9 17 5 5 -3 7 -9 4 -14 -4 -7 16 -20 40 -25 30 -6 55 -19 55 -27 0 -6 9 -8 20
-5 11 3 27 -2 35 -10 9 -8 31 -15 50 -16 23 -1 31 -4 22 -10 -8 -6 -4 -7 11
-4 17 4 21 2 13 -7 -8 -9 -1 -13 27 -14 20 -2 39 -8 43 -14 4 -7 8 -6 12 3 4
10 6 9 6 -3 1 -9 6 -20 13 -24 8 -5 9 -1 5 12 -5 16 -4 15 9 -3 13 -18 20 -20
40 -13 19 8 26 5 35 -11 9 -17 13 -18 27 -7 14 11 15 11 9 -6 -6 -16 -5 -17 8
-6 12 10 15 10 15 0 0 -10 3 -10 14 -1 10 9 16 9 21 1 4 -6 13 -9 21 -6 7 3
16 0 20 -6 4 -6 3 -8 -3 -5 -5 3 -10 0 -10 -7 0 -10 9 -11 34 -6 18 5 36 4 39
-1 3 -5 10 -6 16 -3 6 4 8 2 5 -3 -4 -6 0 -14 9 -17 10 -4 13 -2 9 7 -4 6 0 4
8 -5 11 -14 16 -15 27 -5 10 10 11 9 5 -2 -6 -10 -4 -13 7 -8 9 3 21 0 28 -6
10 -9 11 -9 6 0 -5 9 -2 11 8 7 9 -3 14 -9 11 -13 -4 -7 10 -11 48 -12 11 0
15 -5 10 -12 -4 -7 0 -6 10 2 14 11 17 11 17 0 0 -11 2 -11 10 1 8 12 10 12
10 1 0 -8 7 -11 19 -8 12 3 27 -3 36 -13 13 -15 22 -17 42 -9 13 5 22 5 19 0
-3 -4 13 -7 35 -6 27 1 42 -2 46 -11 3 -8 9 -11 14 -8 5 3 7 10 4 15 -3 5 1 6
9 3 9 -3 16 -10 16 -16 0 -5 -6 -6 -12 -2 -7 4 -9 3 -5 -1 12 -14 38 -15 30
-2 -4 7 1 6 10 -2 12 -10 17 -10 17 -2 0 8 7 6 17 -5 12 -11 18 -13 21 -5 3 8
9 6 18 -6 13 -17 14 -17 8 2 -5 19 -5 19 9 3 11 -14 16 -15 27 -5 7 7 10 8 8
2 -3 -5 1 -17 10 -25 14 -13 15 -12 9 2 -9 25 15 28 41 4 20 -17 24 -18 32 -6
5 8 10 10 10 4 0 -14 32 -13 42 1 5 6 8 5 8 -3 0 -10 10 -12 35 -9 19 3 32 1
29 -4 -3 -5 -9 -7 -13 -5 -4 3 -13 1 -21 -4 -9 -6 3 -8 33 -5 44 3 47 2 35
-13 -11 -15 -11 -15 3 -5 9 7 20 9 24 5 5 -4 5 -1 1 6 -8 13 10 17 18 4 3 -5
19 -7 35 -6 18 1 31 -3 31 -9 0 -7 5 -5 10 3 6 10 10 11 10 3 0 -7 5 -13 11
-13 5 0 7 6 4 13 -4 6 2 2 13 -10 20 -22 20 -22 25 -2 5 18 8 19 29 7 13 -7
26 -17 29 -22 4 -5 13 -5 20 0 8 5 20 9 27 10 11 2 11 0 0 -13 -11 -14 -11
-15 8 -5 16 8 24 8 34 -1 9 -8 11 -8 6 0 -4 8 6 10 36 6 24 -4 45 -9 48 -12 3
-3 11 -7 19 -9 12 -3 12 -1 0 14 -13 16 -12 16 8 6 16 -9 23 -9 26 1 3 6 6 2
6 -10 1 -13 6 -23 12 -23 5 0 7 4 4 10 -8 14 5 12 35 -3 21 -11 28 -11 37 -1
7 6 9 15 5 20 -4 4 -1 4 6 0 7 -4 10 -11 7 -16 -3 -4 2 -11 11 -14 9 -3 12 -2
9 5 -4 6 4 8 22 5 15 -2 28 -5 28 -6 0 -1 8 -3 18 -5 9 -2 15 1 11 6 -3 5 -1
9 5 9 5 0 13 -5 16 -10 5 -8 11 -7 21 1 11 9 14 8 14 -2 0 -11 2 -11 10 1 9
13 10 13 10 0 0 -13 1 -13 10 0 6 10 10 11 10 3 0 -7 9 -13 21 -13 13 0 18 -4
13 -12 -4 -7 -3 -8 5 -4 6 4 9 12 6 17 -10 15 12 10 29 -7 15 -14 16 -14 17 3
0 16 1 16 9 -2 5 -11 9 -15 9 -8 1 6 14 11 30 11 22 -1 28 -5 24 -17 -4 -11
-1 -10 11 4 10 11 14 13 10 5 -7 -13 -6 -13 11 0 11 9 16 10 11 3 -4 -7 -3
-13 3 -13 5 0 12 6 14 13 4 9 6 9 6 0 1 -7 6 -13 12 -13 5 0 8 4 5 8 -3 5 1 9
9 9 8 0 12 -4 9 -9 -3 -4 2 -8 10 -8 9 0 16 6 16 13 0 6 5 4 11 -6 9 -16 11
-16 26 -1 15 15 18 15 30 -2 7 -10 13 -13 13 -5 0 7 5 9 11 6 16 -11 79 -11
79 -1 0 4 7 3 15 -4 11 -9 15 -9 15 -1 0 7 5 9 12 5 6 -4 38 -7 70 -6 39 1 58
-3 58 -11 0 -7 5 -4 11 5 8 14 15 15 35 8 33 -13 37 -13 28 3 -5 9 -4 9 6 0
11 -10 17 -10 29 0 10 8 12 8 8 1 -4 -7 0 -14 8 -18 8 -3 17 0 21 6 5 7 2 8
-6 3 -8 -5 -11 -4 -7 3 4 5 16 8 27 5 11 -3 18 -8 15 -12 -2 -4 4 -7 14 -6 23
1 47 25 46 45 -1 8 3 20 7 27 5 6 5 14 -2 18 -5 3 -10 11 -10 16 0 6 6 7 13 3
9 -6 9 -5 0 7 -10 12 -10 18 -1 27 9 9 9 12 0 12 -7 0 -12 5 -12 11 0 5 5 7
12 3 7 -5 8 -3 3 7 -12 18 -14 49 -3 43 4 -3 8 -1 8 5 0 5 -5 11 -11 13 -7 2
-7 12 0 31 7 18 7 26 1 22 -13 -8 -13 1 1 27 8 15 8 19 0 14 -14 -9 -14 0 0
26 8 15 8 19 0 14 -14 -9 -14 0 0 26 8 15 8 19 0 14 -6 -4 -11 -2 -11 3 0 6 6
11 13 11 9 0 9 2 0 8 -13 8 -11 41 3 64 4 6 3 8 -3 5 -7 -4 -10 3 -9 17 0 13
4 22 9 19 4 -2 7 0 7 6 0 5 -5 11 -11 13 -7 2 -7 12 0 31 7 18 7 26 1 22 -13
-8 -13 1 1 27 8 15 8 19 0 14 -6 -4 -11 -2 -11 4 0 6 5 21 11 32 8 15 8 19 0
14 -14 -9 -14 0 0 26 8 15 8 19 0 14 -14 -9 -14 0 0 26 8 15 8 19 -1 13 -14
-9 -10 27 5 37 6 5 5 8 -3 8 -10 0 -10 5 -1 21 8 15 8 19 0 15 -14 -9 -14 0 0
26 8 15 8 19 0 14 -14 -9 -14 0 0 26 8 15 8 19 -1 13 -14 -9 -10 26 5 38 6 4
6 10 -2 15 -13 8 -11 41 3 64 4 6 3 8 -3 5 -7 -4 -10 3 -9 17 0 13 4 22 9 19
4 -2 7 0 7 6 0 5 -5 11 -11 13 -7 2 -7 12 0 31 7 18 7 26 1 22 -13 -8 -13 1 1
27 8 15 8 19 0 14 -6 -4 -11 -2 -11 3 0 6 6 11 13 11 9 0 9 2 0 8 -13 8 -11
41 3 64 4 6 3 8 -3 5 -7 -4 -10 3 -9 17 0 13 4 22 9 19 4 -2 7 0 7 6 0 5 -5
11 -11 13 -7 2 -7 12 0 31 7 18 7 26 1 22 -13 -8 -13 1 1 27 8 15 8 19 0 14
-6 -4 -11 -2 -11 3 0 6 6 11 13 11 9 0 9 2 0 8 -13 8 -11 41 3 64 4 6 3 8 -3
5 -7 -4 -10 3 -9 17 0 13 4 22 9 19 4 -2 7 1 7 6 0 6 -5 11 -10 11 -11 0 -7
41 6 61 4 8 3 9 -4 5 -15 -9 -15 -1 -1 26 8 15 8 19 0 14 -14 -9 -14 0 0 26 8
15 8 19 -1 13 -14 -9 -10 27 5 37 6 5 5 8 -3 8 -10 0 -10 5 -1 21 8 15 8 19 0
15 -6 -4 -11 -4 -11 -1 0 4 5 16 11 27 8 15 8 19 0 14 -14 -9 -14 0 0 26 7 13
7 18 1 14 -6 -4 -10 2 -9 14 1 11 4 20 7 20 3 0 6 9 6 19 0 11 -4 17 -8 15
-11 -7 -10 4 3 28 8 15 8 19 0 14 -6 -4 -11 -2 -11 3 0 6 6 11 13 11 9 0 9 2
0 8 -13 8 -11 41 3 64 4 6 3 8 -3 5 -7 -4 -10 3 -9 17 0 13 4 22 9 19 4 -2 7
0 7 6 0 5 -5 11 -11 13 -7 2 -7 12 0 31 7 18 7 26 1 22 -13 -8 -13 1 1 27 8
15 8 19 0 14 -14 -9 -14 0 0 26 8 15 8 19 0 14 -14 -9 -14 0 0 26 8 15 8 19 0
14 -6 -4 -11 -2 -11 3 0 6 6 11 13 11 9 0 9 2 0 8 -13 8 -11 41 3 64 4 6 3 8
-3 5 -7 -4 -10 3 -9 17 0 13 4 22 9 19 4 -2 7 0 7 6 0 5 -5 11 -11 13 -7 2 -7
12 0 31 7 18 7 26 1 22 -13 -8 -13 1 1 27 8 15 8 19 0 14 -14 -9 -14 9 0 36 8
15 8 19 0 14 -14 -9 -14 0 0 26 8 15 8 19 0 14 -6 -4 -11 -4 -11 -1 0 4 5 16
11 27 8 15 8 19 -1 13 -14 -9 -10 27 5 37 6 5 5 8 -3 8 -10 0 -10 5 -1 21 8
15 8 19 0 15 -6 -4 -11 -4 -11 -1 0 4 5 16 11 27 8 15 8 19 0 14 -14 -9 -14 0
0 26 8 15 8 19 -1 13 -14 -9 -10 26 5 38 6 4 6 10 -2 15 -13 8 -11 41 3 64 4
6 3 8 -3 5 -7 -4 -10 3 -9 17 0 13 4 22 9 19 4 -2 7 0 7 6 0 5 -5 11 -11 13
-7 2 -7 12 0 31 7 18 7 26 1 22 -13 -8 -13 1 1 27 8 15 8 19 0 14 -6 -4 -11
-2 -11 3 0 6 6 11 13 11 9 0 9 2 0 8 -13 8 -11 41 3 64 4 6 3 8 -3 5 -7 -4
-10 3 -9 17 0 13 4 22 9 19 4 -2 7 0 7 6 0 5 -5 11 -11 13 -7 2 -7 12 0 31 7
18 7 26 1 22 -13 -8 -13 1 1 27 8 15 8 19 0 14 -6 -4 -11 -2 -11 3 0 6 6 11
13 11 9 0 9 2 0 8 -13 8 -11 41 3 64 4 6 3 8 -3 5 -7 -4 -10 3 -9 17 0 13 4
22 9 19 4 -2 7 1 7 6 0 6 -5 11 -10 11 -11 0 -7 41 6 61 4 8 3 9 -4 5 -15 -9
-15 -1 -1 26 8 15 8 19 0 14 -14 -9 -14 0 0 26 8 15 8 19 -1 13 -14 -9 -10 27
5 37 6 5 5 8 -3 8 -10 0 -10 5 -1 21 8 15 8 19 0 15 -14 -9 -14 0 0 26 8 15 8
19 0 14 -6 -4 -11 -4 -11 -1 0 4 5 16 11 27 8 15 8 19 -1 13 -14 -9 -10 27 5
37 6 5 5 8 -3 8 -10 0 -10 5 -1 21 8 15 8 19 0 15 -6 -4 -11 -4 -11 -1 0 4 5
16 11 27 8 15 8 19 0 14 -6 -4 -11 -4 -11 -1 0 4 5 16 11 27 8 15 8 19 -1 13
-14 -9 -10 27 5 37 6 5 5 8 -3 8 -10 0 -10 5 -1 21 8 15 8 19 0 15 -14 -9 -14
0 0 26 8 15 8 19 0 14 -14 -9 -14 0 0 26 8 15 8 19 -1 13 -14 -9 -10 26 5 38
6 4 6 10 -2 15 -13 8 -11 41 3 64 4 6 3 8 -3 5 -7 -4 -10 3 -9 17 0 13 4 22 9
19 4 -2 7 0 7 6 0 5 -5 11 -11 13 -7 2 -7 12 0 31 7 18 7 26 1 22 -13 -8 -13
1 1 27 8 15 8 19 0 14 -6 -4 -11 -2 -11 3 0 6 6 11 13 11 9 0 9 2 0 8 -13 8
-11 41 3 64 4 6 3 8 -3 5 -7 -4 -10 3 -9 17 0 13 4 22 9 19 4 -2 7 0 7 6 0 5
-5 11 -11 13 -7 2 -7 12 0 31 7 18 7 26 1 22 -13 -8 -13 1 1 27 8 15 8 19 0
14 -6 -4 -11 -2 -11 3 0 6 6 11 13 11 9 0 9 2 0 8 -13 8 -11 41 3 64 4 6 3 8
-3 5 -7 -4 -10 3 -9 17 0 13 4 22 9 19 4 -2 7 1 7 6 0 6 -5 11 -10 11 -11 0
-7 41 6 61 4 8 3 9 -4 5 -15 -9 -15 -1 -1 26 8 15 8 19 0 14 -14 -9 -14 0 0
26 8 15 8 19 -1 13 -14 -9 -10 27 5 37 6 5 5 8 -3 8 -10 0 -10 5 -1 21 8 15 8
19 0 15 -6 -4 -11 -4 -11 -1 0 4 5 16 11 27 8 15 8 19 0 14 -6 -4 -11 -4 -11
-1 0 4 5 16 11 27 7 13 7 18 1 14 -6 -4 -10 2 -9 14 1 11 4 20 7 20 3 0 6 9 6
19 0 11 -4 17 -8 15 -11 -7 -10 4 3 28 8 15 8 19 0 14 -6 -4 -11 -2 -11 3 0 6
6 11 13 11 9 0 9 2 0 8 -13 8 -11 41 3 64 4 6 3 8 -3 5 -7 -4 -10 3 -9 17 0
13 4 22 9 19 4 -2 7 0 7 6 0 5 -5 11 -11 13 -7 2 -7 12 0 31 7 18 7 26 1 22
-13 -8 -13 1 1 27 8 15 8 19 0 14 -14 -9 -14 0 0 26 8 15 8 19 0 14 -6 -4 -11
-4 -11 -1 0 4 5 16 11 27 8 15 8 19 0 14 -6 -4 -11 -2 -11 3 0 6 6 11 13 11 9
0 9 2 0 8 -13 8 -11 41 3 64 4 6 3 8 -3 5 -7 -4 -10 3 -9 17 0 13 4 22 9 19 4
-2 7 0 7 6 0 5 -5 11 -11 13 -7 2 -7 12 0 31 7 18 7 26 1 22 -13 -8 -13 1 1
27 8 15 8 19 0 14 -6 -4 -11 -2 -11 4 0 6 5 21 11 32 8 15 8 19 0 14 -6 -4
-11 -4 -11 -1 0 4 5 16 11 27 8 15 8 19 0 14 -6 -4 -11 -4 -11 -1 0 4 5 16 11
27 8 15 8 19 -1 13 -14 -9 -10 27 5 37 6 5 5 8 -3 8 -10 0 -10 5 -1 21 8 15 8
19 0 15 -6 -4 -11 -4 -11 -1 0 4 5 16 11 27 8 15 8 19 0 14 -6 -4 -11 -4 -11
-1 0 4 5 16 11 27 8 15 8 19 -1 13 -14 -9 -10 26 5 38 6 4 6 10 -2 15 -13 8
-11 41 3 64 4 6 3 8 -3 5 -7 -4 -10 3 -9 17 0 13 4 22 9 19 4 -2 7 0 7 6 0 5
-5 11 -11 13 -7 2 -7 12 0 31 7 18 7 26 1 22 -13 -8 -13 1 1 27 8 15 8 19 0
14 -6 -4 -11 -2 -11 3 0 6 6 11 13 11 9 0 9 2 0 8 -13 8 -11 41 3 64 4 6 3 8
-3 5 -7 -4 -10 3 -9 17 0 13 4 22 9 19 4 -2 7 0 7 6 0 5 -5 11 -11 13 -7 2 -7
12 0 31 7 18 7 26 1 22 -13 -8 -13 1 1 27 8 15 8 19 0 14 -6 -4 -11 -2 -11 3
0 6 6 11 13 11 9 0 9 2 0 8 -13 8 -11 41 3 64 4 6 3 8 -3 5 -7 -4 -10 3 -9 17
0 13 4 22 9 19 4 -2 7 1 7 6 0 6 -5 11 -10 11 -11 0 -7 41 6 61 4 8 3 9 -4 5
-15 -9 -15 -1 -1 26 8 15 8 19 0 14 -6 -4 -11 -4 -11 -1 0 4 5 16 11 27 8 15
8 19 -1 13 -14 -9 -10 27 5 37 6 5 5 8 -3 8 -10 0 -10 5 -1 21 8 15 8 19 0 15
-6 -4 -11 -4 -11 -1 0 4 5 16 11 27 8 15 8 19 0 14 -6 -4 -11 -4 -11 -1 0 4 5
16 11 27 7 13 7 18 1 14 -6 -4 -10 2 -9 14 1 11 4 20 7 20 3 0 6 9 6 19 0 11
-4 17 -8 15 -11 -7 -10 4 3 28 8 15 8 19 0 14 -6 -4 -11 -2 -11 3 0 6 6 11 13
11 9 0 9 2 0 8 -13 8 -11 41 3 64 4 6 3 8 -3 5 -7 -4 -10 3 -9 17 0 13 4 22 9
19 4 -2 7 0 7 6 0 5 -5 11 -11 13 -7 2 -7 12 0 31 7 18 7 26 1 22 -13 -8 -13
1 1 27 8 15 8 19 0 14 -6 -4 -11 -4 -11 -1 0 4 5 16 11 27 8 15 8 19 0 14 -6
-4 -11 -4 -11 -1 0 4 5 16 11 27 8 15 8 19 0 14 -6 -4 -11 -2 -11 3 0 6 6 11
13 11 9 0 9 2 0 8 -13 8 -11 41 3 64 4 6 3 8 -3 5 -7 -4 -10 3 -9 17 0 13 4
22 9 19 4 -2 7 0 7 6 0 5 -5 11 -11 13 -7 2 -7 12 0 31 7 18 7 26 1 22 -13 -8
-13 1 1 27 8 15 8 19 0 14 -6 -4 -11 -3 -11 3 0 5 6 12 13 14 9 4 9 6 -1 6
-10 1 -10 6 -1 23 10 18 9 20 -5 15 -12 -5 -15 -3 -9 6 4 6 8 15 9 20 1 4 2 8
4 10 7 8 5 45 -3 40 -5 -3 -8 0 -5 8 10 30 -45 59 -68 36 -4 -3 5 -4 20 -1 14
2 26 0 26 -5 0 -5 -8 -8 -17 -6 -10 1 -24 -3 -32 -9 -12 -9 -13 -8 -6 3 6 11
4 13 -7 8 -9 -3 -24 1 -35 8 -28 22 -38 18 -12 -4 l24 -20 -25 6 c-14 3 -29
12 -33 20 -4 7 -13 13 -20 13 -8 0 -8 -3 -2 -8z m-2550 -392 c3 -6 -1 -7 -9
-4 -18 7 -21 14 -7 14 6 0 13 -4 16 -10z m-1175 -604 c0 -2 -8 -10 -17 -17
-16 -13 -17 -12 -4 4 13 16 21 21 21 13z m-1160 -2536 c0 -5 -5 -10 -11 -10
-5 0 -7 5 -4 10 3 6 8 10 11 10 2 0 4 -4 4 -10z m1710 -3696 c0 -8 -19 -13
-24 -6 -3 5 1 9 9 9 8 0 15 -2 15 -3z m1015 -384 c3 -6 -1 -7 -9 -4 -18 7 -21
14 -7 14 6 0 13 -4 16 -10z m142 -35 c0 -8 -4 -12 -9 -9 -4 3 -8 9 -8 15 0 5
4 9 8 9 5 0 9 -7 9 -15z"/>
<path d="M7188 13803 c7 -3 16 -2 19 1 4 3 -2 6 -13 5 -11 0 -14 -3 -6 -6z"/>
<path d="M7650 13790 c7 -13 4 -16 -13 -16 l-22 1 0 -2240 c-1 -1232 2 -2249
5 -2259 5 -14 9 -16 14 -7 6 9 11 9 21 1 10 -8 15 -8 20 1 6 8 10 7 16 -2 6
-9 12 -10 17 -4 10 13 35 18 27 5 -7 -11 8 -14 19 -3 11 11 36 12 36 1 0 -6 7
-4 17 3 9 8 14 9 10 3 -8 -15 25 -13 35 1 5 6 8 5 8 -4 0 -11 3 -11 15 -1 12
10 15 10 15 -1 0 -11 2 -11 10 1 8 12 10 12 10 1 0 -11 3 -11 15 -1 14 12 19
7 16 -13 -1 -5 3 -6 9 -2 6 3 8 10 5 15 -3 5 4 8 15 7 11 -1 20 -8 20 -16 0
-11 4 -10 16 5 8 10 12 12 8 4 -7 -13 -5 -13 9 -1 14 11 17 11 17 0 0 -11 2
-11 10 1 9 13 10 13 10 0 1 -12 3 -11 14 3 10 13 15 14 18 5 5 -15 68 -18 68
-3 0 5 5 3 10 -5 6 -9 13 -11 18 -5 10 13 35 18 27 5 -7 -11 8 -14 19 -3 11
11 36 12 36 1 0 -6 7 -4 17 3 9 8 14 9 10 3 -8 -15 25 -13 35 1 5 6 8 5 8 -4
0 -11 3 -11 15 -1 12 10 15 10 15 -1 0 -11 2 -11 10 1 8 12 10 12 10 1 0 -11
3 -11 15 -1 14 12 19 7 16 -13 -1 -5 3 -6 9 -2 6 3 8 10 5 15 -3 5 4 8 15 7
11 -1 20 -8 20 -16 0 -11 4 -10 16 5 8 10 12 12 8 4 -7 -13 -5 -13 9 -1 14 11
17 11 17 0 0 -11 2 -11 10 1 9 13 10 13 10 0 1 -12 3 -11 14 3 10 13 15 14 18
5 5 -15 68 -18 68 -3 0 5 5 3 10 -5 6 -9 13 -11 18 -5 10 13 35 18 27 5 -7
-11 8 -14 19 -3 11 11 36 12 36 1 0 -6 7 -4 17 3 9 8 14 9 10 3 -7 -12 21 -12
40 -1 6 4 13 1 16 -5 3 -10 8 -9 22 2 17 13 18 13 10 0 -7 -12 -3 -11 18 3 18
12 25 13 21 4 -3 -8 2 -14 10 -14 8 0 13 3 11 6 -2 3 10 6 25 6 16 1 27 -2 25
-5 -2 -4 2 -7 10 -7 8 0 12 4 9 9 -3 4 0 8 5 8 6 0 11 -5 11 -11 0 -8 6 -7 17
2 11 10 14 10 9 2 -4 -7 -3 -13 3 -13 5 0 13 5 17 11 5 8 9 8 14 -1 5 -8 13
-9 21 -4 20 12 59 13 59 1 0 -5 8 -3 17 4 9 8 14 9 10 3 -7 -12 21 -12 40 -1
6 4 13 1 16 -5 3 -10 7 -10 19 -1 8 7 17 10 20 8 10 -10 49 -14 43 -4 -4 5 -1
9 4 9 6 0 11 -5 11 -11 0 -8 6 -7 17 2 11 10 14 10 9 2 -4 -7 -3 -13 3 -13 5
0 13 5 17 11 5 8 9 8 14 -1 5 -8 13 -9 21 -4 20 12 59 13 59 1 0 -5 8 -3 17 4
9 8 14 9 10 3 -7 -12 21 -12 41 0 6 4 12 2 12 -3 0 -12 27 -10 47 2 6 4 14 1
16 -5 4 -9 8 -9 14 -3 11 13 36 18 28 5 -7 -11 8 -14 19 -3 11 11 36 12 36 1
0 -6 7 -4 17 3 9 8 14 9 10 3 -8 -15 25 -13 35 1 5 6 8 5 8 -4 0 -11 3 -11 15
-1 12 10 15 10 15 -1 0 -11 2 -11 10 1 8 12 10 12 10 1 0 -11 3 -11 15 -1 14
12 19 7 16 -13 -1 -5 3 -6 9 -2 6 3 8 10 5 15 -3 5 4 8 15 7 11 -1 20 -8 20
-16 0 -11 4 -10 16 5 8 10 12 12 8 4 -7 -13 -5 -13 9 -1 14 11 17 11 17 0 0
-11 2 -11 10 1 9 13 10 13 10 0 1 -12 3 -11 14 3 10 13 15 14 18 5 5 -15 68
-18 68 -3 0 5 5 3 10 -5 6 -9 13 -11 18 -5 10 13 35 18 27 5 -7 -11 8 -14 19
-3 11 11 36 12 36 1 0 -6 7 -4 17 3 9 8 14 9 10 3 -8 -15 25 -13 35 1 5 6 8 5
8 -4 0 -11 3 -11 15 -1 12 10 15 10 15 -1 0 -11 2 -11 10 1 8 12 10 12 10 1 0
-11 3 -11 15 -1 14 12 19 7 16 -13 -1 -5 3 -6 9 -2 6 3 8 10 5 15 -3 5 4 8 15
7 11 -1 20 -8 20 -16 0 -11 4 -10 16 5 8 10 12 12 8 4 -7 -13 -5 -13 9 -1 14
11 17 11 17 0 0 -11 2 -11 10 1 9 13 10 13 10 0 1 -12 3 -11 14 3 10 13 15 14
18 5 5 -15 68 -18 68 -3 0 5 5 3 10 -5 6 -9 13 -11 18 -5 10 13 35 18 27 5 -7
-11 8 -14 19 -3 11 11 36 12 36 1 0 -6 7 -4 17 3 9 8 14 9 10 3 -7 -12 21 -12
40 -1 6 4 13 1 16 -5 3 -10 8 -9 22 2 17 13 18 13 10 0 -7 -12 -3 -11 18 3 18
12 25 13 21 4 -3 -8 2 -14 10 -14 8 0 13 3 11 6 -2 3 10 6 25 6 16 1 27 -2 25
-5 -2 -4 2 -7 10 -7 8 0 12 4 9 9 -3 4 0 8 5 8 6 0 11 -5 11 -11 0 -8 6 -7 17
2 11 10 14 10 9 2 -4 -7 -3 -13 3 -13 5 0 13 5 17 11 5 8 9 8 14 -1 5 -8 13
-9 21 -4 20 12 59 13 59 1 0 -5 8 -3 17 4 9 8 14 9 10 3 -7 -12 21 -12 40 -1
6 4 13 1 16 -5 3 -10 7 -10 19 -1 8 7 17 10 20 8 10 -10 49 -14 43 -4 -4 5 -1
9 4 9 6 0 11 -5 11 -11 0 -8 6 -7 17 2 11 10 14 10 9 2 -4 -7 -3 -13 3 -13 5
0 13 5 17 11 5 8 9 8 14 -1 5 -8 13 -9 21 -4 20 12 59 13 59 1 0 -5 8 -3 17 4
9 8 14 9 10 3 -7 -12 21 -12 41 0 6 4 12 2 12 -3 0 -12 27 -10 47 2 6 4 14 1
16 -5 4 -9 8 -9 14 -3 11 13 36 18 28 5 -7 -11 8 -14 19 -3 11 11 36 12 36 1
0 -6 7 -4 17 3 9 8 14 9 10 3 -8 -15 25 -13 35 1 5 6 8 5 8 -4 0 -11 3 -11 15
-1 12 10 15 10 15 -1 0 -11 2 -11 10 1 8 12 10 12 10 1 0 -11 3 -11 15 -1 14
12 19 7 16 -13 -1 -5 3 -6 9 -2 6 3 8 10 5 15 -3 5 4 8 15 7 11 -1 20 -8 20
-16 0 -11 4 -10 16 5 8 10 12 12 8 4 -7 -13 -5 -13 9 -1 14 11 17 11 17 0 0
-11 2 -11 10 1 9 13 10 13 10 0 1 -12 3 -11 14 3 10 13 15 14 18 5 5 -15 68
-18 68 -3 0 5 5 3 10 -5 6 -9 13 -11 18 -5 10 13 35 18 27 5 -7 -11 8 -14 19
-3 11 11 36 12 36 1 0 -6 7 -4 17 3 9 8 14 9 10 3 -8 -15 25 -13 35 1 5 6 8 5
8 -4 0 -11 3 -11 15 -1 12 10 15 10 15 -1 0 -11 2 -11 10 1 8 12 10 12 10 1 0
-11 3 -11 15 -1 14 12 19 7 16 -13 -1 -5 3 -6 9 -2 6 3 8 10 5 15 -3 5 4 8 15
7 11 -1 20 -8 20 -16 0 -11 4 -10 16 5 8 10 12 12 8 4 -7 -13 -5 -13 9 -1 14
11 17 11 17 0 0 -11 2 -11 10 1 9 13 10 13 10 0 1 -12 3 -11 14 3 10 13 15 14
18 5 5 -15 68 -18 68 -3 0 5 5 3 10 -5 6 -9 13 -11 18 -5 10 13 35 18 27 5 -7
-11 8 -14 19 -3 11 11 36 12 36 1 0 -6 7 -4 17 3 11 9 14 10 9 2 -5 -9 -2 -11
8 -7 9 3 13 11 9 17 -4 6 -1 7 6 3 7 -5 10 -15 7 -25 -5 -12 -2 -11 9 3 8 11
15 15 15 10 0 -6 7 -11 15 -11 8 0 12 4 9 9 -3 4 1 8 9 8 8 0 13 9 12 23 -1
12 3 28 9 36 8 11 8 13 0 8 -7 -4 -11 12 -12 51 0 31 -2 72 -5 90 -2 17 0 32
6 32 6 0 6 5 0 13 -5 6 -8 27 -7 44 1 18 -2 35 -7 39 -12 7 -11 24 2 24 5 0 7
-5 3 -12 -4 -7 -3 -8 5 -4 9 6 9 11 -1 23 -16 19 -18 63 -3 63 5 0 4 4 -4 9
-9 6 -10 11 -2 15 6 4 11 13 11 19 0 8 -3 8 -9 -1 -6 -10 -10 -7 -13 12 -3 14
-1 23 3 20 13 -8 11 10 -3 25 -11 11 -10 12 0 6 11 -6 12 -3 4 11 -5 11 -8 28
-6 39 1 10 -3 26 -9 34 -10 12 -9 13 1 7 9 -6 12 -3 10 10 -2 11 -9 22 -17 25
-11 4 -10 8 3 22 10 9 13 17 8 17 -6 0 -13 7 -16 16 -4 10 -2 13 7 9 6 -4 3 1
-7 9 -11 9 -14 16 -8 16 7 0 12 7 12 16 0 9 -5 12 -12 8 -7 -5 -8 -3 -2 7 11
18 11 52 0 60 -4 4 -3 17 4 29 8 15 8 20 1 16 -6 -4 -11 0 -11 11 0 11 -6 25
-12 33 -11 12 -10 12 4 2 12 -10 18 -10 24 -1 4 8 3 9 -4 5 -8 -5 -12 1 -12
14 0 12 -3 19 -8 16 -4 -2 -8 8 -8 22 -1 15 -2 46 -3 70 0 26 -5 41 -11 37 -5
-3 -7 0 -4 8 3 8 1 18 -4 21 -5 3 -7 18 -4 32 4 21 2 25 -9 19 -11 -6 -12 -5
-1 6 6 7 12 17 12 22 0 4 -6 5 -12 1 -10 -6 -10 -4 0 7 17 19 15 32 -5 25 -15
-5 -15 -4 1 9 20 15 20 15 0 15 -16 0 -17 2 -4 10 12 8 12 10 -5 10 -15 0 -17
3 -7 9 17 11 17 21 0 32 -10 7 -10 9 2 9 13 0 13 1 0 10 -13 8 -13 13 -2 31 8
11 9 18 3 14 -6 -3 -11 1 -11 10 0 10 -5 13 -12 9 -8 -5 -7 0 2 11 11 14 12
17 1 11 -9 -6 -12 -5 -9 5 3 8 1 22 -4 33 -7 13 -7 16 1 12 7 -5 9 -1 5 8 -3
9 -10 16 -15 16 -5 0 -9 11 -9 24 0 14 -5 28 -10 31 -7 4 -7 12 0 25 6 12 6
20 0 22 -5 2 -11 15 -12 31 -1 15 -6 27 -10 27 -13 0 -9 30 5 30 6 1 1 7 -12
14 -16 9 -20 15 -11 18 9 3 11 9 4 19 -15 24 -33 82 -28 91 3 4 -3 8 -13 8
-14 0 -15 2 -5 9 17 10 17 18 -3 37 -8 9 -13 20 -10 25 4 5 1 9 -6 9 -7 0 -9
8 -6 21 4 14 -1 23 -16 29 -20 8 -20 9 -3 9 20 1 20 1 0 17 -10 8 -12 12 -4 8
12 -7 13 -5 3 8 -7 8 -10 18 -6 21 3 4 1 7 -6 7 -8 0 -11 6 -7 16 3 8 2 13 -3
10 -12 -8 -22 20 -15 39 4 8 1 15 -6 15 -6 0 -8 5 -5 10 3 6 1 10 -5 10 -7 0
-9 8 -5 20 5 15 1 22 -17 29 -13 6 -17 10 -9 10 10 1 11 4 2 14 -6 8 -8 17 -4
20 3 4 1 7 -5 7 -7 0 -12 7 -12 15 0 8 -6 15 -12 15 -10 0 -10 2 0 9 11 7 10
9 -3 15 -9 3 -13 10 -10 16 3 5 1 10 -5 10 -6 0 -8 5 -5 10 3 6 1 10 -5 10 -6
0 -8 5 -5 10 3 6 1 10 -4 10 -6 0 -11 11 -11 24 0 14 -5 28 -12 32 -7 5 -8 3
-3 -6 5 -8 4 -11 -3 -7 -5 4 -8 17 -4 29 3 14 2 19 -6 14 -8 -5 -12 3 -12 24
0 17 -4 29 -8 26 -5 -3 -15 10 -22 29 -7 19 -20 37 -28 40 -8 3 -11 12 -8 20
3 10 -1 15 -12 15 -15 0 -15 2 -2 10 13 8 12 10 -4 10 -13 0 -17 5 -13 20 3
11 1 18 -3 15 -10 -6 -32 29 -24 37 2 3 -4 11 -13 19 -17 13 -17 13 -3 -6 14
-18 14 -19 -2 -7 -9 8 -14 20 -11 28 3 8 0 14 -7 14 -6 0 -8 5 -5 10 3 6 1 10
-4 10 -6 0 -11 6 -11 14 0 8 -7 17 -16 20 -11 4 -14 13 -11 27 5 17 3 18 -11
7 -12 -10 -14 -10 -8 0 4 7 2 12 -6 12 -9 0 -9 3 2 10 13 8 12 10 -4 10 -11 0
-16 3 -12 7 3 4 -4 13 -16 20 -13 7 -17 12 -10 13 6 0 12 4 12 9 0 6 -9 8 -21
6 -18 -4 -19 -2 -7 12 11 14 10 16 -9 11 -15 -4 -20 -2 -17 7 3 7 -2 19 -10
28 -9 9 -16 20 -16 25 0 5 -8 16 -17 23 -17 13 -17 13 -3 -6 14 -19 14 -19 -2
-6 -10 7 -16 17 -13 21 3 5 1 11 -5 15 -6 4 -7 11 -4 17 4 7 2 8 -4 4 -7 -4
-12 -1 -12 9 0 9 -4 13 -10 10 -5 -3 -10 1 -10 9 0 15 -12 21 -34 17 -5 -1 -4
5 4 13 10 13 10 16 -1 16 -8 0 -23 13 -34 29 -11 17 -21 28 -24 26 -2 -3 2
-13 10 -22 13 -17 13 -17 -4 -4 -10 8 -16 22 -14 32 3 12 0 16 -9 12 -8 -3
-17 2 -20 11 -4 9 -18 24 -33 32 -17 10 -19 13 -6 10 20 -6 20 -6 1 9 -11 8
-24 15 -29 15 -4 0 -5 5 -2 10 3 6 -1 13 -9 16 -9 3 -13 10 -10 15 3 5 -2 6
-10 3 -10 -4 -16 -1 -16 7 0 8 -14 20 -30 27 -17 8 -28 17 -25 22 8 12 -44 50
-69 50 -13 0 -17 3 -9 8 8 5 2 12 -19 21 -22 10 -27 16 -17 22 10 6 8 9 -9 9
-15 0 -21 4 -16 12 5 8 2 9 -10 5 -11 -4 -15 -3 -11 4 4 6 -2 13 -14 16 -11 3
-18 9 -15 14 3 5 0 9 -6 9 -6 0 -8 5 -4 13 5 8 2 8 -9 -2 -15 -12 -17 -11 -17
3 0 10 -4 14 -10 11 -5 -3 -10 1 -10 9 0 10 -6 13 -17 9 -12 -5 -14 -3 -8 8 7
12 6 12 -7 1 -14 -11 -16 -10 -14 12 2 15 -1 26 -5 26 -5 0 -9 -5 -9 -12 0 -6
-11 -1 -24 12 -14 12 -31 20 -39 17 -7 -3 -19 5 -27 16 -12 20 -12 21 3 8 11
-9 17 -10 17 -2 0 11 -13 15 -36 12 -7 -1 -15 6 -18 15 -4 9 -12 14 -22 10 -8
-3 -12 -2 -9 4 3 6 1 10 -5 10 -6 0 -9 3 -6 8 2 4 -7 13 -21 19 -25 12 -25 12
-7 -9 19 -21 19 -21 -4 -7 -12 8 -25 22 -28 32 -4 13 -12 17 -25 14 -12 -3
-17 -1 -12 6 4 6 -2 8 -16 4 -18 -4 -20 -3 -10 9 10 12 9 13 -6 7 -15 -5 -17
-3 -12 13 6 17 5 17 -5 2 -11 -15 -14 -13 -35 15 -13 17 -23 26 -23 21 0 -6 5
-15 12 -22 9 -9 5 -9 -15 0 -15 7 -27 16 -27 21 0 4 -7 7 -16 7 -10 0 -14 5
-10 15 4 13 2 13 -14 5 -15 -8 -22 -6 -33 10 -7 11 -17 17 -20 13 -4 -3 -7 -1
-7 5 0 7 -3 11 -7 11 -27 -4 -45 3 -40 15 4 10 1 13 -10 9 -8 -3 -19 0 -24 8
-7 12 -9 12 -9 -1 -1 -8 -6 -4 -11 9 -7 18 -12 21 -23 12 -11 -9 -16 -9 -22 0
-5 8 -3 9 6 4 8 -5 11 -4 7 2 -4 6 -18 9 -32 8 -14 -2 -25 1 -25 6 0 4 -7 6
-15 3 -10 -4 -13 -2 -10 8 4 9 0 15 -9 15 -8 0 -13 -4 -10 -8 2 -4 -9 -1 -26
7 -16 9 -35 12 -42 8 -10 -6 -10 -4 0 8 11 14 10 16 -9 11 -15 -4 -20 -3 -15
5 5 8 -2 11 -23 8 -25 -3 -29 0 -26 16 4 16 2 18 -10 8 -12 -10 -15 -10 -15 1
0 11 -2 11 -10 -1 -9 -14 -15 -7 -11 14 1 5 -5 3 -14 -4 -13 -11 -14 -10 -8 6
6 16 5 17 -9 6 -11 -9 -18 -10 -23 -2 -3 6 -12 7 -18 3 -7 -4 -5 2 3 12 14 17
14 18 -7 7 -18 -10 -24 -9 -32 5 -10 17 -10 16 -11 -2 -1 -11 -4 -14 -7 -7 -2
6 -9 10 -14 7 -5 -4 -6 0 -3 8 4 11 -2 14 -25 11 -17 -2 -31 1 -31 7 0 6 -11
9 -24 7 -13 -1 -31 3 -40 11 -9 7 -25 11 -35 8 -14 -3 -18 -1 -14 10 5 12 2
13 -13 5 -14 -7 -24 -7 -36 2 -10 7 -16 15 -14 17 3 2 -12 5 -32 7 -59 4 -73
8 -83 23 -7 11 -9 11 -9 1 0 -7 -5 -10 -10 -7 -6 4 -7 12 -4 18 5 8 3 8 -7 0
-17 -16 -33 -17 -23 -1 5 7 2 9 -8 5 -9 -3 -21 0 -27 6 -13 13 -43 19 -35 6
10 -16 -8 -10 -23 9 -8 9 -12 12 -9 6 3 -7 -5 -11 -23 -10 -16 1 -27 4 -24 9
7 12 -12 8 -26 -5 -10 -11 -11 -10 -6 3 4 11 -1 18 -15 22 -18 5 -20 3 -8 -11
12 -16 11 -16 -7 -1 -11 9 -26 14 -32 12 -7 -3 -13 0 -13 6 0 6 -5 11 -11 11
-5 0 -8 -4 -5 -9 7 -11 -13 -9 -31 2 -7 5 -19 5 -25 1 -8 -5 -8 -2 1 10 12 15
12 17 0 14 -8 -2 -17 -10 -21 -18 -5 -12 -7 -12 -7 3 -1 17 -10 21 -44 17 -10
-1 -24 4 -32 10 -10 8 -15 8 -21 -1 -5 -8 -3 -9 6 -4 9 6 11 4 5 -4 -5 -9 -11
-9 -17 -3 -6 6 -17 8 -26 5 -10 -4 -13 -2 -8 5 5 8 0 12 -14 12 -13 0 -19 -4
-14 -11 3 -6 -4 -4 -17 4 -13 8 -32 13 -41 12 -10 -2 -18 0 -18 5 0 5 -8 7
-17 6 -10 -2 -30 0 -45 5 -18 5 -29 3 -32 -4 -2 -7 -5 -4 -5 6 -1 15 -5 16
-21 7 -17 -9 -20 -8 -20 7 0 14 -2 15 -9 4 -7 -11 -11 -10 -21 5 -11 19 -11
19 -6 0 6 -18 5 -18 -20 -1 -15 9 -23 12 -20 6 4 -6 2 -11 -3 -11 -6 0 -11 6
-11 13 0 9 -3 8 -9 -2 -6 -9 -11 -10 -15 -2 -5 8 -13 8 -27 1 -15 -9 -19 -7
-19 7 0 15 -2 15 -16 -3 -8 -10 -13 -13 -9 -6 7 13 -3 15 -49 12 -21 -1 -26 2
-20 12 6 10 4 10 -9 -1 -11 -8 -17 -9 -17 -3 0 7 -19 11 -50 9 -28 -1 -50 2
-50 8 0 5 -5 3 -10 -5 -9 -14 -14 -7 -11 15 1 6 -5 2 -13 -8 -12 -15 -15 -15
-26 -3 -9 12 -16 13 -31 3 -16 -10 -21 -9 -28 2 -7 11 -9 11 -14 0 -4 -11 -6
-11 -6 -1 -1 8 -6 10 -13 5 -20 -12 -38 -12 -38 -1 0 6 -7 4 -17 -3 -11 -10
-14 -10 -9 -1 4 6 2 12 -3 12 -6 0 -11 -6 -11 -12 0 -9 -3 -8 -9 2 -6 8 -7 19
-3 24 3 6 -11 1 -30 -11 -34 -20 -38 -20 -50 -5 -11 15 -11 15 3 5 9 -7 19
-10 22 -6 13 13 7 20 -15 17 -13 -1 -23 -3 -23 -4 0 -1 -10 -3 -22 -4 -13 -2
-23 2 -23 7 0 5 -7 4 -15 -3 -11 -9 -15 -9 -15 -1 0 9 -5 9 -21 0 -12 -6 -19
-7 -16 -2 4 6 -7 10 -24 11 -16 0 -27 -3 -24 -9 3 -5 -1 -6 -9 -3 -9 3 -13 11
-9 18 5 8 3 8 -8 0 -16 -12 -29 -12 -46 -1 -7 5 -13 4 -13 -1 0 -15 -91 -7
-101 9 -8 12 -11 11 -23 -3 -11 -16 -15 -16 -34 -2 -20 14 -21 13 -15 -2 5
-14 3 -15 -14 -6 -11 6 -25 7 -33 2 -17 -10 -42 -1 -33 13 3 5 1 7 -5 3 -6 -3
-13 -2 -17 4 -3 5 -11 10 -18 10 -6 0 -3 -6 7 -13 17 -12 17 -14 3 -20 -10 -4
-20 0 -25 9 -5 9 -20 17 -35 18 -22 3 -25 0 -17 -14z m35 0 c3 -5 1 -10 -4
-10 -6 0 -11 5 -11 10 0 6 2 10 4 10 3 0 8 -4 11 -10z m1980 -229 c3 -5 1 -12
-5 -16 -5 -3 -10 1 -10 9 0 18 6 21 15 7z m1790 -871 c3 -6 -1 -7 -9 -4 -18 7
-21 14 -7 14 6 0 13 -4 16 -10z"/>
<path d="M6445 13771 c-6 -11 9 -23 19 -14 9 9 7 23 -3 23 -6 0 -12 -4 -16 -9z"/>
<path d="M5190 13610 c0 -5 5 -10 11 -10 5 0 7 5 4 10 -3 6 -8 10 -11 10 -2 0
-4 -4 -4 -10z"/>
<path d="M9890 13511 c0 -6 4 -13 10 -16 6 -3 7 1 4 9 -7 18 -14 21 -14 7z"/>
<path d="M9996 13468 c3 -5 10 -6 15 -3 13 9 11 12 -6 12 -8 0 -12 -4 -9 -9z"/>
<path d="M7697 8889 c4 -13 8 -18 11 -10 2 7 -1 18 -6 23 -8 8 -9 4 -5 -13z"/>
<path d="M7634 8885 c-4 -8 -10 -13 -14 -10 -10 6 -7 -15 4 -34 5 -8 5 -12 0
-8 -5 3 -9 -1337 -9 -3333 0 -1999 -4 -3336 -9 -3333 -5 4 -5 0 0 -8 5 -8 9
-243 9 -524 0 -280 4 -515 8 -522 4 -6 3 -14 -2 -18 -6 -3 -9 -19 -8 -34 1
-16 5 -27 10 -24 4 2 7 -2 7 -9 0 -9 3 -9 10 2 8 12 10 12 11 -5 l0 -20 9 20
c5 11 9 14 9 6 1 -10 4 -11 15 -2 10 9 16 9 21 1 5 -8 11 -7 23 2 13 11 14 11
7 -2 -8 -13 -7 -13 8 -1 13 10 17 10 17 1 0 -10 3 -10 15 0 10 9 15 9 15 1 0
-6 5 -11 11 -11 5 0 8 4 5 9 -7 11 13 9 32 -2 7 -5 12 -3 12 4 0 8 5 7 17 -2
11 -10 14 -10 9 -1 -4 6 -2 12 3 12 6 0 11 -5 11 -11 0 -8 4 -8 15 1 8 6 20 8
27 4 15 -10 49 -13 43 -4 -2 3 14 6 35 6 25 0 37 -4 33 -10 -3 -6 0 -6 7 1 7
6 19 9 26 6 8 -3 22 1 31 8 9 8 14 9 10 2 -4 -6 -1 -13 5 -16 20 -6 48 4 42
15 -4 6 3 5 15 -1 16 -9 21 -9 21 0 0 7 9 6 24 -5 17 -10 27 -12 31 -5 4 6 13
8 21 5 7 -3 16 -2 18 3 6 10 37 8 55 -4 10 -6 12 -4 6 5 -6 10 -4 12 9 7 10
-4 15 -3 11 3 -3 6 -2 10 4 10 5 0 12 -6 14 -12 4 -10 6 -9 6 1 1 10 4 11 15
2 11 -9 16 -9 22 0 5 8 3 9 -6 4 -9 -5 -11 -4 -6 4 4 6 12 9 17 5 5 -3 16 -1
24 6 10 8 15 8 21 -1 4 -7 3 -9 -4 -5 -6 3 -13 2 -16 -3 -3 -5 1 -11 9 -14 8
-4 17 2 21 15 4 15 8 17 14 8 5 -7 16 -9 30 -5 15 5 20 4 16 -4 -10 -16 0 -13
18 5 9 8 16 11 16 5 0 -10 14 -10 60 1 9 2 14 -3 12 -11 -3 -12 0 -12 12 -2 8
7 21 9 28 5 9 -6 9 -3 -1 9 -12 15 -12 17 2 12 8 -4 18 -1 22 5 5 8 11 8 22
-1 17 -14 55 -20 47 -7 -3 4 -2 8 3 9 4 0 19 2 32 5 24 4 24 4 5 -18 -17 -21
-17 -21 9 1 19 17 27 20 27 10 0 -10 2 -11 8 -2 4 7 21 10 40 8 17 -2 34 0 37
6 4 5 11 9 16 9 6 0 8 -4 5 -9 -6 -10 21 -8 47 3 9 5 23 4 30 0 7 -5 4 -1 -6
9 -22 19 -15 22 14 7 13 -8 19 -7 19 0 0 6 5 8 10 5 6 -4 8 -12 4 -18 -3 -7 3
-1 14 12 13 16 21 20 26 12 6 -9 11 -9 22 0 8 6 14 7 14 2 0 -5 7 -10 15 -10
8 0 12 4 9 9 -3 4 -1 8 5 8 5 0 12 -6 14 -12 3 -7 6 -8 6 -2 1 5 14 9 30 8 21
-1 28 2 25 11 -3 7 0 16 7 21 8 4 10 3 5 -4 -4 -7 -2 -12 4 -12 6 0 8 -6 4
-12 -4 -7 -4 -10 1 -6 4 4 15 2 24 -4 13 -10 14 -10 4 2 -18 20 -16 35 2 20
12 -10 16 -9 21 4 5 12 10 14 19 6 9 -8 14 -6 19 5 4 13 10 14 26 5 11 -6 20
-8 20 -4 0 3 7 1 15 -6 13 -11 14 -10 9 4 -7 18 15 19 28 1 4 -5 8 1 9 15 0
14 3 19 6 13 6 -16 33 -17 33 -1 0 6 7 3 15 -8 14 -18 15 -18 8 0 -4 13 -2 17
8 14 8 -3 26 -1 42 3 19 5 25 4 21 -3 -5 -8 -1 -9 12 -4 10 5 24 9 31 9 7 0
10 4 7 9 -3 4 5 8 18 8 13 0 29 5 35 11 8 8 13 8 18 -1 5 -8 12 -7 25 5 14 12
20 13 26 4 5 -8 3 -10 -6 -4 -9 6 -11 4 -5 -5 6 -10 12 -8 24 7 10 12 27 19
46 19 17 -1 36 6 43 14 8 8 11 9 7 3 -3 -7 -2 -13 2 -13 5 0 15 6 22 13 8 6
11 7 8 2 -11 -21 33 -13 48 8 8 12 15 16 15 9 0 -7 5 -10 10 -7 6 4 7 12 4 18
-5 8 -3 8 7 0 17 -17 32 -17 23 -1 -5 8 0 7 11 -2 17 -13 18 -13 13 0 -4 10 1
15 16 16 30 1 50 7 58 19 5 6 8 5 8 -2 0 -7 5 -13 11 -13 6 0 9 6 6 14 -5 11
0 13 23 6 23 -7 28 -5 23 6 -3 8 0 14 6 14 6 0 11 -5 11 -11 0 -5 5 -7 10 -4
6 4 7 12 4 18 -5 9 -3 9 6 0 11 -10 16 -9 27 5 8 9 11 10 7 3 -4 -9 6 -6 24 8
18 12 32 19 32 15 0 -3 8 0 17 7 10 8 14 9 10 2 -4 -6 -3 -14 3 -18 5 -3 10
-1 10 5 0 6 5 8 10 5 6 -4 23 5 37 19 17 17 30 23 36 17 11 -11 39 -3 32 9 -3
4 2 11 11 14 8 3 13 2 10 -2 -2 -4 4 -8 14 -8 14 0 16 4 9 12 -8 9 -5 11 10 7
12 -3 21 -1 21 6 0 9 5 9 20 1 12 -6 20 -7 20 -1 0 5 -6 11 -12 13 -7 3 -2 7
10 10 12 4 20 3 17 -2 -2 -4 11 0 30 8 19 9 35 20 35 25 0 5 8 3 17 -4 14 -12
16 -12 8 0 -6 11 -4 13 9 8 10 -4 15 -3 11 3 -8 14 8 13 22 -1 9 -9 10 -6 6
10 -3 12 -2 21 3 20 26 -5 63 3 80 17 18 15 18 15 -3 5 -34 -17 -42 -12 -10 5
16 9 31 13 34 10 3 -3 13 3 22 12 9 10 12 11 6 3 -9 -12 -7 -12 13 -2 12 6 22
15 22 20 0 4 12 13 26 19 20 10 24 10 19 0 -4 -7 -1 -6 7 3 7 9 18 17 23 18 6
2 9 7 8 12 -2 4 4 6 12 3 8 -4 15 -1 15 4 0 6 9 9 20 7 21 -4 45 26 32 40 -4
5 -2 5 5 1 17 -10 64 4 56 17 -4 6 0 8 10 4 10 -3 17 -2 17 3 0 6 3 9 8 9 4
-1 13 -1 21 0 11 1 11 4 0 18 -13 15 -12 15 7 5 17 -9 24 -7 36 8 9 10 13 22
10 26 -4 3 4 1 17 -6 17 -9 21 -9 16 0 -9 14 25 41 43 35 7 -3 10 0 7 5 -3 6
-1 10 5 10 13 0 46 30 33 30 -20 1 25 20 46 20 13 0 22 3 18 6 -10 10 22 36
35 28 8 -5 9 -2 5 9 -3 9 -3 16 1 16 21 -4 42 2 42 12 0 5 -5 7 -12 3 -7 -4
-8 -3 -4 5 4 6 12 9 17 6 5 -4 9 -1 9 5 0 6 4 9 9 6 5 -3 11 1 15 9 3 8 13 15
22 15 14 0 14 3 4 15 -11 13 -10 14 4 9 9 -3 16 -1 16 6 0 6 5 8 12 4 8 -5 9
-2 5 9 -3 9 -3 16 1 16 19 -3 33 2 28 10 -3 5 4 11 15 14 12 3 18 10 15 16 -4
6 2 8 13 6 14 -2 18 1 14 11 -3 8 1 14 11 14 9 0 15 5 14 12 -2 6 7 17 19 23
13 7 20 15 15 20 -4 5 -1 5 6 1 7 -4 15 -1 18 8 3 9 11 13 17 9 6 -4 8 0 4 10
-3 9 -1 19 5 23 7 5 8 2 3 -7 -7 -11 -6 -12 7 -2 8 7 18 11 22 8 3 -3 2 0 -3
6 -6 8 1 22 22 42 18 17 31 35 29 39 -1 4 4 8 12 8 8 0 18 5 22 12 5 7 2 9 -7
4 -8 -4 -5 0 6 9 11 9 19 21 17 27 -2 6 4 8 12 5 10 -4 13 -1 10 8 -3 7 8 23
25 36 17 13 31 29 31 36 0 8 7 16 15 19 8 4 15 13 15 21 0 8 4 12 8 9 4 -2 14
4 21 16 10 16 10 19 -1 12 -10 -6 -11 -5 -1 8 7 8 10 18 6 22 -4 4 1 4 11 0
14 -5 17 -4 12 4 -4 7 -2 12 4 12 7 0 9 7 6 16 -3 8 -2 12 4 9 6 -3 10 -1 10
4 0 6 7 11 16 11 8 0 12 5 9 10 -4 6 -12 7 -18 3 -7 -4 -6 0 2 10 7 9 17 14
22 12 4 -3 6 4 4 15 -2 11 0 18 6 15 5 -4 9 1 9 9 0 8 9 22 21 30 12 8 18 19
15 24 -3 6 1 13 10 16 9 4 14 13 10 22 -3 8 -2 12 4 9 5 -3 12 6 16 20 3 13
10 22 16 19 5 -3 9 0 7 7 -3 27 1 40 11 34 6 -4 7 1 3 11 -5 12 -3 15 6 9 10
-6 11 -3 1 15 -8 15 -8 20 -1 16 6 -4 11 -2 11 4 0 6 5 8 13 4 7 -5 6 0 -3 11
-8 10 -10 16 -4 12 14 -8 27 20 17 36 -4 6 0 8 10 4 11 -4 14 -2 10 9 -3 7 0
14 6 14 6 0 8 6 5 14 -3 8 -1 17 5 21 6 3 11 15 11 27 0 11 8 22 20 25 11 3
17 9 14 14 -3 5 -11 7 -17 3 -7 -3 -4 1 7 10 10 8 15 19 11 25 -3 6 2 11 12
11 15 0 16 2 3 10 -11 7 -11 10 -2 10 7 0 11 4 7 9 -3 5 -1 12 5 16 6 4 8 11
5 16 -4 5 0 9 7 9 9 0 9 3 -2 10 -12 7 -12 10 -1 10 7 0 11 6 7 15 -3 8 -1 15
5 15 6 0 7 5 4 10 -3 6 -1 10 6 10 8 0 8 4 -1 15 -11 13 -10 14 5 8 14 -5 17
-3 12 10 -3 8 -1 18 6 21 8 3 8 5 -2 5 -11 1 -11 4 -1 16 7 8 9 15 6 15 -4 0
2 9 13 21 15 16 17 27 11 50 -6 18 -5 31 2 35 6 4 8 2 5 -3 -4 -6 -1 -13 6
-16 10 -4 13 2 9 18 -2 12 1 26 7 29 8 5 8 13 1 27 -8 15 -7 21 3 25 9 3 13
13 9 26 -4 16 -2 19 9 13 11 -7 12 -6 2 6 -10 12 -10 18 0 29 9 10 9 11 0 6
-20 -11 -15 1 10 25 12 12 16 18 8 14 -10 -6 -11 -2 -5 16 4 13 8 32 8 42 0 9
4 17 9 17 4 0 5 6 1 12 -5 7 -9 21 -9 30 -1 15 1 16 14 6 9 -7 13 -8 9 -4 -4
5 -2 16 5 24 9 13 9 14 0 8 -7 -4 -13 -2 -13 3 0 6 5 11 11 11 5 0 7 5 4 10
-4 6 -1 18 7 27 9 12 9 15 1 9 -17 -10 -16 4 2 28 11 14 12 23 4 33 -9 9 -8
13 0 13 7 0 10 10 7 25 -3 15 0 25 7 25 7 0 6 4 -3 10 -13 9 -13 10 0 10 12 0
12 2 1 9 -9 6 -10 11 -2 15 6 4 11 12 11 17 0 6 -5 7 -12 3 -7 -5 -8 -3 -2 7
4 8 9 19 10 24 1 6 3 21 5 35 2 14 9 28 14 32 6 4 1 8 -10 9 l-20 0 20 9 c12
5 14 9 6 9 -11 1 -10 5 5 16 19 15 19 15 -1 8 -16 -6 -18 -4 -8 8 6 8 10 31 9
52 -1 29 2 36 13 32 10 -4 8 1 -5 16 -10 12 -14 19 -8 16 16 -9 23 13 14 38
-4 11 -3 25 2 32 5 7 5 14 -2 18 -13 8 -13 25 1 25 5 0 7 -5 3 -12 -4 -6 -3
-8 4 -4 6 4 8 17 3 34 -9 33 -8 43 3 61 6 10 5 16 -2 19 -8 2 -9 9 -2 22 7 13
6 20 -3 23 -9 4 -9 6 1 6 10 1 10 6 2 21 -7 14 -7 20 0 20 5 0 10 5 10 11 0 5
-4 8 -9 5 -5 -4 -7 3 -4 14 3 11 10 17 17 13 7 -5 7 -2 -1 8 -15 19 -14 141 1
132 6 -4 5 1 -3 10 -11 14 -11 17 0 17 12 0 12 2 0 9 -8 5 -9 11 -3 15 11 7
11 24 -1 43 -4 6 -3 14 2 18 6 3 8 12 5 20 -4 8 -10 12 -15 9 -5 -3 -6 5 -1
18 9 28 8 190 -1 206 -4 5 -1 13 5 15 7 3 9 6 3 6 -11 1 -12 82 -1 100 4 6 0
14 -9 17 -11 5 -13 10 -5 19 13 15 2 47 -14 39 -6 -3 -2 2 8 10 20 16 20 16 0
16 -16 0 -17 2 -4 10 13 9 13 10 0 10 -13 0 -13 1 0 10 8 5 11 10 5 10 -6 0
-10 25 -9 56 0 30 -4 57 -8 60 -5 3 -4 12 3 20 9 11 9 14 0 14 -9 0 -9 5 0 21
6 12 7 19 2 16 -5 -3 -15 -2 -23 4 -12 7 -11 9 5 10 11 0 14 3 7 6 -6 2 -9 9
-6 15 4 6 0 14 -7 19 -9 6 -10 12 -4 17 14 10 16 44 2 35 -6 -4 -8 0 -4 10 3
9 2 19 -4 23 -6 3 -3 12 8 20 17 13 17 14 0 8 -13 -5 -16 -2 -10 12 4 10 2 15
-4 11 -5 -3 -10 0 -10 8 0 8 5 11 11 8 6 -4 5 1 -3 10 -11 14 -11 17 0 17 12
0 12 2 0 9 -8 5 -11 16 -8 24 3 9 1 17 -5 19 -6 2 -12 12 -14 21 -1 9 2 15 7
11 5 -3 9 -1 9 5 0 5 -5 11 -11 13 -6 2 -11 20 -12 41 0 20 -5 37 -9 37 -4 0
-8 5 -8 11 0 5 6 7 13 3 6 -4 4 2 -5 13 -10 11 -18 24 -18 29 0 5 5 2 10 -6 6
-9 10 -10 10 -3 0 6 -6 18 -13 25 -7 7 -13 29 -15 48 -3 55 -4 60 -19 60 -10
0 -11 5 -3 19 7 14 7 22 -2 27 -7 5 -8 3 -3 -6 5 -9 4 -11 -4 -6 -9 6 -9 11
-1 21 8 9 8 14 -1 17 -6 2 -12 18 -12 36 -1 18 -7 32 -14 32 -7 0 -10 7 -7 15
4 8 2 15 -4 15 -5 0 -8 11 -6 25 1 14 -4 32 -12 39 -11 11 -11 16 -1 19 9 4 9
6 0 6 -7 1 -13 12 -13 26 0 14 -4 25 -10 25 -5 0 -9 3 -9 8 1 4 0 10 -1 15 -4
12 -7 26 -9 37 0 5 -6 9 -13 7 -8 -1 -12 12 -12 40 0 34 -3 40 -13 31 -11 -8
-12 -7 -7 7 5 12 4 16 -3 12 -7 -5 -9 0 -6 13 3 11 1 20 -5 20 -5 0 -9 13 -8
29 1 16 0 29 -3 29 -22 -2 -29 5 -27 27 2 15 -1 22 -7 18 -6 -4 -8 0 -4 10 4
10 2 16 -6 14 -6 -1 -13 8 -15 21 -2 12 -8 19 -14 16 -6 -4 -8 1 -3 16 5 15 4
20 -3 16 -6 -4 -16 2 -22 13 -9 18 -8 20 7 14 15 -5 15 -3 -2 10 -11 9 -15 17
-10 17 6 0 -1 7 -15 15 -14 8 -19 14 -12 15 7 0 11 4 7 10 -3 5 -13 7 -23 4
-12 -4 -13 -3 -4 3 7 6 10 17 6 27 -5 14 -9 15 -16 4 -7 -9 -8 -7 -5 10 4 15
0 22 -10 22 -8 0 -11 5 -8 10 3 6 1 10 -4 10 -6 0 -11 7 -11 15 0 8 -4 15 -10
15 -5 0 -10 7 -10 16 0 9 -5 12 -12 8 -8 -5 -7 0 2 11 9 11 10 16 3 11 -8 -4
-13 -2 -13 4 0 6 -5 8 -12 4 -6 -4 -8 -3 -4 4 3 6 0 16 -7 24 -7 7 -14 17 -14
22 0 15 -26 45 -35 40 -4 -3 -8 1 -8 9 0 8 -7 20 -15 27 -8 7 -12 16 -9 21 3
5 -2 9 -11 9 -9 0 -13 5 -10 10 3 6 -1 10 -10 10 -9 0 -13 5 -10 10 3 6 -1 13
-9 16 -9 3 -13 11 -9 17 4 7 0 8 -11 4 -12 -5 -16 -3 -13 5 2 7 -9 25 -24 41
-16 15 -30 30 -31 35 -2 4 -7 6 -12 4 -5 -2 -4 4 3 12 10 12 9 14 -7 9 -11 -2
-23 1 -27 8 -5 8 -4 10 3 5 8 -5 10 -2 6 8 -3 9 -9 16 -13 16 -3 0 -18 11 -33
24 -14 14 -29 22 -34 18 -4 -4 -4 1 -1 11 5 12 1 17 -13 17 -14 0 -18 5 -13
17 4 11 3 14 -5 9 -7 -4 -12 -2 -12 4 0 6 -5 8 -12 4 -6 -4 -9 -3 -5 2 3 5 -2
18 -10 29 -16 20 -16 20 -9 0 4 -15 0 -13 -15 8 -11 15 -27 27 -35 27 -8 0
-14 7 -14 16 0 8 -4 12 -10 9 -5 -3 -10 -1 -10 5 0 6 -4 9 -9 5 -6 -3 -8 4 -6
15 2 12 0 18 -6 14 -6 -3 -18 3 -28 15 -14 16 -20 18 -31 8 -10 -9 -11 -9 -6
1 4 6 1 19 -8 27 -11 11 -16 12 -19 2 -3 -6 -6 -2 -6 11 -1 13 -5 20 -11 17
-5 -3 -10 -1 -10 4 0 6 -3 10 -7 10 -21 -3 -31 3 -36 22 -5 17 -9 19 -25 10
-18 -9 -19 -8 -14 11 4 17 2 20 -11 15 -9 -3 -16 -3 -16 1 3 19 -2 23 -16 12
-12 -10 -15 -9 -16 6 -1 11 -1 23 0 28 1 5 -4 4 -12 -2 -12 -10 -20 -7 -45 16
-16 15 -35 26 -42 24 -8 -3 -10 0 -6 7 6 10 -6 15 -26 12 -5 0 -8 4 -8 9 0 6
-7 10 -16 10 -8 0 -12 5 -8 11 4 8 -1 9 -16 4 -17 -5 -21 -4 -15 6 6 9 4 11
-8 6 -12 -4 -15 -1 -12 14 3 16 1 18 -16 9 -17 -10 -23 -6 -20 12 0 4 -6 5
-14 2 -10 -4 -15 0 -15 10 0 14 -4 15 -22 5 -13 -6 -20 -8 -16 -4 14 15 -11
43 -37 41 -14 -2 -25 1 -25 6 0 5 -10 6 -22 3 -18 -5 -20 -4 -8 4 11 8 12 11
2 11 -8 0 -10 5 -6 13 5 8 2 8 -9 -2 -10 -8 -17 -9 -17 -3 0 6 -9 9 -21 7 -18
-4 -19 -2 -7 12 7 10 8 14 1 10 -6 -4 -14 -1 -16 5 -3 8 -6 5 -6 -6 -1 -16 -3
-16 -22 5 -11 13 -18 18 -14 12 10 -20 -6 -15 -26 8 -9 11 -20 20 -23 20 -31
-4 -47 1 -43 12 3 8 -6 12 -29 11 -22 -1 -32 2 -27 9 4 6 0 8 -10 4 -12 -4
-17 -1 -17 11 0 13 -2 14 -9 3 -5 -8 -10 -9 -12 -3 -2 6 -17 13 -34 15 -22 3
-29 9 -28 23 1 10 0 13 -3 7 -4 -10 -11 -10 -26 -2 -16 9 -19 8 -12 -3 4 -7
-10 0 -32 17 -21 16 -33 21 -25 12 13 -17 13 -17 -12 -6 -15 7 -24 17 -20 23
3 6 0 6 -7 -1 -11 -10 -16 -9 -27 5 -14 16 -14 16 -9 0 3 -12 1 -15 -9 -11 -8
3 -12 10 -8 16 4 6 -2 8 -15 5 -15 -4 -25 0 -32 10 -8 14 -10 14 -10 2 -1 -10
-4 -9 -10 5 -5 11 -9 14 -9 8 -1 -7 -6 -13 -12 -13 -5 0 -7 5 -3 12 4 6 3 8
-3 5 -6 -4 -19 0 -29 7 -12 9 -23 11 -30 5 -8 -6 -14 -4 -17 6 -4 8 -13 12
-22 9 -8 -3 -12 -11 -8 -17 3 -6 1 -7 -5 -3 -6 4 -8 14 -5 24 6 15 5 16 -12 2
-11 -9 -16 -10 -11 -2 6 11 -18 18 -46 13 -5 0 -8 4 -8 11 0 9 -3 9 -12 0 -14
-14 -32 -16 -24 -3 3 5 -4 11 -15 14 -13 4 -18 10 -13 18 4 8 3 10 -5 5 -6 -4
-9 -11 -6 -16 3 -4 -1 -10 -9 -13 -8 -3 -13 1 -12 10 0 9 -5 18 -11 20 -7 3
-13 -2 -13 -11 0 -13 -4 -12 -21 5 -15 15 -24 18 -32 10 -6 -6 -16 -11 -21
-11 -6 0 -4 5 4 10 12 8 10 10 -10 11 -14 1 -31 1 -39 0 -7 -2 -11 2 -7 7 3 5
-1 9 -9 9 -8 0 -15 -4 -15 -9 0 -5 -7 -3 -15 6 -9 8 -23 12 -31 9 -9 -3 -20 0
-25 8 -7 12 -9 12 -9 0 0 -9 -7 -6 -20 9 -11 13 -20 19 -20 14 0 -6 6 -16 13
-23 8 -8 2 -7 -17 3 -16 8 -37 13 -47 11 -11 -2 -19 0 -19 6 0 5 -7 9 -15 9
-8 0 -15 -5 -15 -11 0 -6 -9 -1 -19 12 -20 24 -20 24 -35 4 -13 -16 -15 -17
-10 -2 4 12 1 17 -11 17 -10 0 -14 -5 -9 -12 6 -10 4 -10 -7 0 -7 6 -26 12
-42 12 -15 0 -38 5 -50 12 -21 11 -21 10 -7 -8 14 -18 14 -18 -2 -5 -10 7 -18
10 -18 6 0 -4 -6 -2 -14 4 -20 17 -56 22 -57 8 0 -7 -4 -3 -9 8 -6 13 -9 15
-9 5 -1 -13 -2 -13 -11 0 -8 12 -11 13 -19 1 -6 -10 -10 -10 -16 -1 -6 9 -10
9 -17 -1 -7 -10 -8 -7 -4 11 5 24 4 24 -9 6 -14 -18 -19 -15 -16 9 1 6 -5 2
-12 -7 -17 -22 -31 -24 -24 -3 5 11 1 12 -18 5 -25 -10 -37 4 -12 13 7 4 8 6
1 6 -6 1 -17 -5 -23 -13 -9 -11 -17 -11 -36 -2 -14 6 -25 15 -25 20 0 6 -7 1
-15 -10 -9 -12 -14 -14 -15 -6 0 7 -5 10 -10 7 -6 -4 -18 -1 -27 7 -12 9 -15
9 -9 1 4 -7 2 -13 -3 -13 -6 0 -11 4 -11 10 0 5 -7 7 -16 3 -9 -3 -20 0 -25 8
-7 12 -9 12 -9 0 0 -11 -3 -11 -17 0 -15 12 -16 12 -10 -5 6 -14 4 -16 -5 -9
-7 6 -23 9 -36 8 -13 -1 -26 3 -29 8 -3 6 -1 7 5 3 6 -3 13 -3 16 2 2 4 -6 8
-19 8 -13 0 -22 -3 -20 -6 2 -4 -2 -7 -10 -7 -8 0 -12 4 -9 9 3 4 0 8 -5 8 -6
0 -11 -6 -11 -12 0 -9 -3 -9 -9 1 -8 13 -12 13 -27 0 -11 -8 -15 -9 -10 -2 5
9 0 13 -16 12 -13 0 -32 1 -43 4 -11 2 -30 1 -42 -4 -14 -5 -25 -4 -29 3 -5 7
-3 8 6 3 9 -5 11 -4 6 4 -5 8 -12 9 -20 2 -17 -15 -51 -6 -50 13 1 8 -3 13 -8
10 -5 -3 -7 -12 -4 -20 3 -7 1 -16 -5 -19 -5 -4 -8 -1 -7 7 2 9 -8 13 -30 13
-18 0 -37 7 -43 15 -9 13 -10 12 -5 -2 3 -10 0 -20 -6 -24 -6 -4 -8 -3 -4 4 3
6 2 13 -4 17 -5 3 -10 2 -10 -3 0 -6 -14 -7 -34 -2 -19 4 -37 5 -40 2 -4 -3
-6 0 -6 7 0 7 -5 9 -10 6 -6 -4 -7 -11 -4 -17 5 -7 2 -8 -7 -2 -8 5 -17 9 -21
10 -5 1 -10 3 -13 4 -13 6 -32 6 -47 -2 -12 -6 -18 -5 -18 4 0 10 -2 10 -9 0
-11 -19 -15 -19 -33 -4 -13 10 -17 10 -20 1 -3 -8 -9 -9 -19 -4 -23 15 -49 16
-49 2 0 -7 -3 -8 -8 -2 -11 15 -32 17 -32 3 0 -7 -5 -5 -11 5 -8 14 -14 16
-24 7 -8 -7 -23 -9 -35 -5 -12 4 -27 2 -35 -5 -10 -8 -15 -8 -21 1 -4 8 -3 9
4 5 8 -5 10 -1 5 10 -5 14 -8 13 -19 -7 -7 -13 -13 -18 -14 -10 0 8 -6 11 -16
7 -8 -3 -13 -2 -10 2 3 5 -1 9 -9 9 -8 0 -12 -4 -10 -8 3 -4 -2 -10 -11 -13
-23 -9 -31 -7 -14 4 13 8 13 11 1 22 -11 11 -13 11 -6 -1 6 -11 4 -13 -8 -8
-10 3 -17 2 -17 -4 0 -6 -6 -7 -12 -2 -18 11 -39 13 -33 3 3 -4 -2 -10 -10
-14 -8 -3 -19 3 -24 12 -6 9 -11 12 -11 5 0 -13 -25 -12 -37 2 -4 4 -2 5 6 0
9 -5 12 -4 7 3 -10 16 -15 15 -22 -3z m837 -58 c-10 -9 -11 -8 -5 6 3 10 9 15
12 12 3 -3 0 -11 -7 -18z m3354 -1177 c3 -5 1 -10 -4 -10 -6 0 -11 5 -11 10 0
6 2 10 4 10 3 0 8 -4 11 -10z m-1415 -6240 c0 -5 -4 -10 -10 -10 -5 0 -10 5
-10 10 0 6 5 10 10 10 6 0 10 -4 10 -10z m-435 -131 c-4 -5 -12 -9 -18 -8 -9
0 -8 2 1 6 6 2 9 10 6 15 -4 7 -2 8 5 4 6 -4 9 -12 6 -17z m-965 -169 c0 -5
-5 -10 -11 -10 -5 0 -7 5 -4 10 3 6 8 10 11 10 2 0 4 -4 4 -10z m-860 -64 c0
-3 -4 -8 -10 -11 -5 -3 -10 -1 -10 4 0 6 5 11 10 11 6 0 10 -2 10 -4z m110 0
c0 -3 -4 -8 -10 -11 -5 -3 -10 -1 -10 4 0 6 5 11 10 11 6 0 10 -2 10 -4z"/>
<path d="M12423 6715 c0 -8 4 -12 9 -9 5 3 6 10 3 15 -9 13 -12 11 -12 -6z"/>
<path d="M4650 6260 c0 -5 5 -10 11 -10 5 0 7 5 4 10 -3 6 -8 10 -11 10 -2 0
-4 -4 -4 -10z"/>
<path d="M5430 6080 c0 -5 5 -10 11 -10 5 0 7 5 4 10 -3 6 -8 10 -11 10 -2 0
-4 -4 -4 -10z"/>
<path d="M5846 6017 c3 -10 9 -15 12 -12 3 3 0 11 -7 18 -10 9 -11 8 -5 -6z"/>
<path d="M2350 5553 c0 -7 -7 -13 -15 -13 -8 0 -14 -6 -12 -12 1 -7 -4 -12
-11 -10 -8 1 -11 -2 -7 -8 3 -6 10 -8 15 -5 4 3 11 -2 14 -11 3 -8 2 -12 -3
-9 -15 8 -25 -15 -12 -28 15 -15 14 -30 -1 -21 -9 5 -9 3 1 -9 7 -9 11 -28 9
-42 -3 -13 0 -26 6 -29 8 -3 8 -5 0 -5 -8 -1 -9 -14 -4 -41 5 -27 4 -40 -4
-40 -6 0 -4 -5 4 -10 13 -9 13 -10 0 -10 -9 0 -11 -3 -5 -8 6 -4 10 -25 9 -47
0 -22 2 -44 5 -50 9 -16 8 -29 -2 -42 -6 -9 -5 -13 3 -13 10 0 10 -4 -1 -16
-10 -13 -10 -17 0 -24 10 -5 10 -9 1 -15 -8 -5 -6 -11 6 -19 12 -10 14 -15 5
-20 -9 -6 -9 -11 0 -22 8 -10 9 -14 0 -14 -8 0 -7 -9 3 -29 9 -16 13 -31 9
-34 -10 -10 -9 -52 1 -59 6 -4 4 -13 -5 -24 -9 -11 -9 -15 -1 -10 15 9 16 -6
1 -21 -8 -8 -7 -13 2 -18 8 -6 10 -4 4 6 -7 12 -5 12 6 1 12 -11 12 -14 -1
-22 -12 -8 -12 -10 4 -10 20 0 20 0 0 -16 -10 -8 -14 -13 -8 -10 7 3 14 -3 17
-14 3 -13 1 -18 -5 -13 -7 3 -8 1 -4 -5 13 -21 18 -134 6 -127 -7 4 -7 -1 1
-13 7 -12 16 -19 19 -17 4 2 7 -2 7 -10 0 -8 -5 -15 -11 -15 -6 0 -6 -4 2 -8
7 -5 13 -25 14 -45 1 -23 5 -34 12 -30 6 3 5 0 -1 -8 -18 -18 -16 -29 5 -29
14 0 15 -2 2 -10 -10 -6 -11 -10 -2 -10 6 0 12 -5 12 -11 0 -5 -6 -7 -12 -3
-10 6 -10 4 -2 -7 6 -8 10 -22 9 -31 -2 -10 1 -18 6 -18 6 0 6 -7 0 -18 -6
-12 -5 -23 5 -37 9 -12 14 -14 14 -5 0 7 2 11 5 8 9 -8 -6 -38 -16 -32 -5 3
-6 -2 -3 -10 3 -9 10 -16 15 -16 5 0 8 -8 7 -17 -4 -46 2 -74 15 -67 7 5 6 0
-3 -11 -8 -10 -10 -16 -4 -12 7 4 14 -2 17 -13 3 -13 1 -18 -6 -13 -9 5 -9 3
-1 -8 17 -22 26 -51 13 -43 -6 3 -3 -5 6 -19 9 -15 14 -31 11 -36 -4 -5 -2
-13 4 -16 6 -4 9 -20 6 -36 -2 -16 0 -27 5 -23 5 3 6 10 3 16 -4 6 -3 8 3 5 6
-4 9 -19 7 -34 -1 -15 3 -34 9 -42 10 -12 9 -13 -1 -7 -11 7 -12 4 -3 -13 7
-11 9 -21 5 -21 -4 0 1 -9 12 -21 23 -25 22 -22 5 -43 -13 -15 -12 -18 7 -22
14 -4 19 -12 17 -25 -2 -10 2 -19 8 -19 7 0 6 -4 -3 -10 -13 -8 -12 -10 3 -10
10 0 15 -4 12 -10 -3 -5 -1 -10 4 -10 6 0 11 -5 11 -11 0 -5 -5 -7 -11 -4 -13
8 12 -37 26 -47 6 -5 4 -8 -5 -8 -12 -1 -11 -3 3 -11 11 -7 16 -18 13 -35 -3
-14 -1 -22 5 -19 8 5 14 -15 10 -37 0 -5 4 -8 10 -8 8 0 7 -6 -2 -17 -10 -11
-10 -14 -1 -9 7 4 12 2 12 -4 0 -6 5 -8 13 -4 8 5 8 2 -2 -9 -7 -9 -9 -17 -4
-17 5 0 10 -10 10 -22 1 -13 9 -28 17 -34 11 -7 12 -14 5 -21 -8 -8 -7 -13 2
-18 8 -6 10 -4 4 6 -6 10 -5 11 4 3 7 -6 13 -21 14 -33 1 -11 5 -21 9 -21 4 0
8 -10 8 -22 0 -19 2 -20 10 -8 7 11 10 7 10 -17 0 -22 5 -33 15 -33 9 0 12 -6
9 -15 -3 -8 1 -22 10 -31 9 -8 14 -20 11 -25 -4 -5 -1 -9 5 -9 7 0 10 -6 7
-14 -6 -15 16 -40 26 -30 3 3 3 -3 0 -15 -3 -13 -1 -21 6 -21 7 0 9 -4 6 -10
-3 -6 -1 -10 5 -10 7 0 9 -7 6 -16 -5 -12 -2 -15 9 -10 9 3 14 2 10 -3 -3 -5
0 -11 5 -13 6 -2 12 -13 13 -26 0 -12 5 -22 10 -22 5 0 6 -7 3 -16 -6 -15 -4
-15 11 -3 9 8 14 9 10 2 -4 -6 0 -19 9 -27 8 -9 12 -16 8 -16 -4 0 1 -7 12
-16 10 -8 13 -12 6 -9 -11 6 -11 3 -1 -13 7 -12 16 -19 20 -16 5 2 6 -5 4 -16
-3 -18 5 -24 27 -21 3 0 5 -7 4 -16 -3 -21 15 -43 29 -35 6 3 3 -3 -5 -14 -8
-10 -10 -16 -5 -11 10 9 55 -31 55 -50 0 -7 5 -13 10 -13 6 0 10 -10 10 -22 0
-12 3 -19 6 -15 8 7 34 -17 34 -31 0 -6 5 -12 10 -14 6 -2 12 -13 12 -24 2
-15 7 -20 20 -16 13 3 18 -1 18 -16 0 -11 7 -22 15 -26 9 -3 12 -12 8 -23 -6
-16 -5 -16 11 -4 16 13 17 13 14 -5 -2 -13 2 -19 14 -18 9 1 14 -4 12 -11 -3
-7 0 -16 7 -21 8 -5 10 -3 4 6 -5 9 -4 11 3 6 7 -4 12 -13 12 -21 0 -7 9 -17
20 -20 11 -3 20 -13 20 -21 0 -8 5 -12 10 -9 6 3 10 1 10 -5 0 -6 5 -8 13 -4
8 5 8 2 -2 -9 -12 -15 -11 -17 10 -17 19 0 21 -2 9 -10 -12 -8 -11 -10 8 -10
13 0 22 -6 22 -15 0 -9 7 -18 15 -21 8 -3 17 -14 20 -25 4 -10 12 -19 18 -19
7 0 23 -10 37 -21 14 -11 19 -18 13 -14 -7 3 -13 4 -13 2 0 -8 74 -51 83 -49
5 2 6 -2 2 -8 -3 -5 0 -10 8 -10 18 0 59 -44 50 -54 -4 -4 0 -4 8 -1 10 4 22
-3 33 -19 9 -15 23 -26 31 -26 8 0 15 -8 16 -17 0 -10 3 -13 5 -6 3 7 17 -1
36 -22 16 -19 34 -33 38 -30 5 3 12 0 15 -6 4 -5 14 -8 22 -5 8 3 11 1 8 -4
-3 -6 -1 -10 5 -10 6 0 9 -4 6 -9 -4 -5 5 -8 19 -6 14 1 23 0 20 -3 -2 -3 3
-11 13 -19 9 -8 11 -11 3 -7 -10 5 -12 3 -7 -5 6 -9 11 -9 21 -1 11 9 17 7 27
-9 7 -12 19 -21 26 -21 8 0 10 -5 6 -12 -5 -8 0 -7 11 2 17 14 18 13 13 -2 -4
-10 -1 -19 8 -22 9 -3 12 -1 9 4 -3 6 -1 10 4 10 6 0 11 -7 11 -16 0 -8 5 -12
10 -9 6 3 10 1 10 -4 0 -6 9 -11 20 -11 11 0 20 -4 20 -10 0 -5 5 -10 11 -10
7 0 18 -8 26 -17 10 -12 12 -13 8 -3 -4 9 -1 8 8 -3 11 -14 16 -15 20 -5 4 10
6 10 6 1 1 -7 8 -13 16 -13 8 0 15 -8 15 -17 0 -14 2 -15 9 -5 7 11 9 10 15
-3 3 -9 10 -14 15 -11 5 4 16 0 24 -8 11 -11 17 -12 27 -3 10 9 11 9 6 -1 -5
-8 0 -12 14 -12 12 0 18 -5 15 -10 -3 -5 3 -10 14 -10 10 0 22 -6 24 -12 4 -9
6 -8 7 2 0 10 6 6 15 -10 9 -15 14 -19 15 -10 0 11 2 12 8 3 4 -7 17 -14 27
-16 11 -2 30 -9 43 -15 12 -7 22 -9 22 -5 1 4 8 -3 16 -17 8 -14 13 -18 11 -9
-3 9 1 16 8 16 7 0 10 -9 8 -21 -4 -16 -2 -17 5 -7 7 10 11 10 17 1 6 -9 10
-9 16 1 7 12 9 12 9 0 0 -8 6 -11 16 -7 8 3 12 2 9 -4 -3 -6 3 -10 14 -10 12
0 21 -4 21 -10 0 -5 5 -10 11 -10 5 0 7 5 3 11 -3 6 5 3 20 -6 14 -10 26 -14
26 -10 0 5 9 0 19 -9 15 -13 20 -14 24 -4 3 8 6 5 6 -7 1 -15 3 -17 10 -6 7
11 10 9 15 -7 8 -24 32 -36 42 -20 5 7 2 8 -6 3 -9 -6 -11 -4 -6 4 6 9 12 8
26 -4 14 -13 19 -13 23 -3 3 8 6 6 6 -6 1 -16 3 -17 17 -5 14 11 19 10 35 -10
11 -14 19 -18 19 -10 0 11 2 11 10 -1 8 -13 10 -13 10 -1 0 11 4 10 16 -5 8
-10 13 -14 10 -7 -4 7 1 9 14 6 11 -3 20 -8 20 -12 0 -3 10 -12 23 -20 l22
-14 -20 23 -20 24 24 -17 c19 -12 28 -14 38 -5 11 8 12 7 7 -6 -5 -14 -3 -15
20 -6 14 5 25 6 25 2 -1 -4 -1 -14 0 -22 1 -13 2 -13 11 0 8 12 10 12 10 1 0
-8 3 -11 7 -8 3 4 13 1 21 -6 13 -9 14 -9 8 1 -4 6 -2 12 3 12 6 0 11 -6 11
-12 0 -9 4 -8 10 2 8 13 10 12 10 -3 0 -10 5 -15 10 -12 6 3 10 -2 11 -12 0
-16 1 -16 9 2 5 11 9 15 9 8 1 -7 8 -10 16 -7 9 4 15 0 15 -7 0 -11 3 -11 10
1 8 12 12 13 19 1 6 -10 13 -10 29 -2 17 9 24 7 43 -17 12 -15 19 -19 16 -10
-3 10 -2 20 4 23 5 4 8 1 7 -7 -2 -8 7 -13 24 -13 14 1 24 -3 22 -7 -3 -4 0
-8 5 -8 6 0 11 5 11 11 0 5 5 7 10 4 6 -4 7 -12 3 -18 -4 -7 0 -6 10 2 11 9
17 10 17 2 0 -6 5 -11 11 -11 5 0 8 4 5 9 -4 5 5 4 19 -2 14 -7 25 -16 25 -21
0 -5 6 -3 14 3 9 8 16 8 20 2 4 -5 15 -8 26 -6 11 2 20 -1 20 -7 0 -6 10 -8
25 -4 14 4 25 2 25 -4 0 -5 5 -10 11 -10 5 0 7 6 3 13 -4 6 -4 9 1 5 4 -4 15
-2 24 5 14 10 14 10 3 -4 -10 -14 -10 -18 4 -23 22 -8 26 -8 20 3 -4 5 3 7 14
4 11 -3 17 -9 14 -14 -3 -5 7 -4 22 1 20 8 29 8 35 -1 4 -7 12 -8 20 -3 20 12
40 14 33 3 -3 -5 -11 -6 -17 -3 -7 4 -8 3 -4 -2 4 -4 24 -7 44 -5 27 2 33 0
27 -11 -6 -10 -4 -10 9 1 12 9 17 10 17 2 0 -7 5 -9 10 -6 6 4 7 11 4 17 -4 7
-2 8 5 4 6 -4 9 -12 5 -17 -3 -6 12 -10 38 -10 76 1 88 -1 88 -13 0 -6 5 -4
10 4 6 10 10 11 10 3 0 -7 5 -13 11 -13 5 0 8 4 5 8 -11 17 37 5 50 -13 12
-16 14 -16 14 -3 0 9 5 20 12 24 7 5 8 3 3 -6 -6 -10 -4 -12 8 -7 9 3 19 1 23
-5 4 -6 3 -8 -4 -4 -6 3 -13 2 -16 -3 -4 -5 2 -8 11 -6 10 2 22 4 26 4 5 1 5
7 2 14 -4 6 1 3 9 -7 12 -15 16 -16 16 -5 0 12 2 12 10 -1 9 -13 10 -13 10 0
0 12 2 13 9 1 7 -11 9 -11 14 0 4 10 6 10 6 2 1 -9 8 -10 24 -4 23 9 50 4 43
-7 -2 -4 11 -7 29 -7 25 -1 32 3 28 15 -3 10 -2 11 4 4 13 -17 36 -22 55 -12
14 7 16 5 11 -9 -5 -15 -3 -16 8 -6 15 15 33 17 24 4 -3 -5 -1 -12 4 -15 5 -4
13 -1 17 5 5 8 3 9 -7 4 -8 -5 -10 -4 -6 0 10 11 39 16 32 5 -3 -4 4 -10 15
-13 11 -3 20 -1 20 4 0 5 -5 9 -12 9 -6 0 -8 3 -5 6 4 4 13 1 22 -6 17 -14
115 -20 115 -6 0 5 9 1 19 -8 11 -10 22 -13 25 -8 9 15 45 21 53 10 4 -7 1 -8
-7 -3 -9 5 -11 4 -6 -4 6 -9 11 -9 22 0 10 8 18 9 27 0 8 -6 17 -8 21 -4 9 10
67 13 62 4 -3 -4 4 -7 14 -7 10 0 16 4 13 9 -7 12 30 4 39 -8 5 -6 8 -5 8 4 0
11 3 11 15 1 12 -10 15 -10 15 1 0 9 3 10 8 4 11 -15 32 -17 32 -3 0 6 7 3 15
-8 15 -18 15 -18 8 0 -4 12 -3 17 4 13 14 -9 22 13 19 47 -2 14 1 23 5 20 5
-3 9 0 9 5 0 6 -5 11 -10 11 -11 0 -7 41 6 61 4 8 3 9 -4 5 -15 -9 -15 -1 -1
26 8 15 8 19 0 14 -6 -4 -11 -4 -11 -1 0 4 5 16 11 27 8 15 8 19 -1 13 -14 -9
-10 27 5 37 6 5 5 8 -3 8 -10 0 -10 5 -1 21 8 15 8 19 0 15 -14 -9 -14 0 0 26
8 15 8 19 0 14 -14 -9 -14 0 0 26 7 13 7 18 1 14 -6 -4 -10 2 -9 14 1 11 4 20
7 20 3 0 6 9 6 19 0 11 -4 17 -8 15 -11 -7 -10 4 3 28 8 15 8 19 0 14 -6 -4
-11 -2 -11 3 0 6 6 11 13 11 9 0 9 2 0 8 -13 8 -11 41 3 64 4 6 3 8 -3 5 -7
-4 -10 3 -9 17 0 13 4 22 9 19 4 -2 7 0 7 6 0 5 -5 11 -11 13 -7 2 -7 12 0 31
7 18 7 26 1 22 -13 -8 -13 1 1 27 8 15 8 19 0 14 -14 -9 -14 0 0 26 8 15 8 19
0 14 -14 -9 -14 0 0 26 8 15 8 19 0 14 -6 -4 -11 -2 -11 3 0 6 6 11 13 11 9 0
9 2 0 8 -13 8 -11 41 3 64 4 6 3 8 -3 5 -7 -4 -10 3 -9 17 0 13 4 22 9 19 4
-2 7 0 7 6 0 5 -5 11 -11 13 -7 2 -7 12 0 31 7 18 7 26 1 22 -13 -8 -13 1 1
27 8 15 8 19 0 14 -6 -4 -11 -4 -11 -1 0 4 5 16 11 27 8 15 8 19 0 14 -14 -9
-14 0 0 26 8 15 8 19 0 14 -6 -4 -11 -2 -11 3 0 6 6 11 13 11 9 0 9 2 0 8 -13
8 -11 41 3 64 4 6 3 8 -3 5 -7 -4 -10 3 -9 17 0 13 4 22 9 19 4 -2 7 0 7 6 0
5 -5 11 -11 13 -7 2 -7 12 0 31 7 18 7 26 1 22 -13 -8 -13 1 1 27 8 15 8 19 0
14 -14 -9 -14 0 0 26 8 15 8 19 0 14 -14 -9 -14 0 0 26 8 15 8 19 0 14 -6 -4
-11 -2 -11 3 0 6 6 11 13 11 9 0 9 2 0 8 -13 8 -11 41 3 64 4 6 3 8 -3 5 -7
-4 -10 3 -9 17 0 13 4 22 9 19 4 -2 7 0 7 6 0 5 -5 11 -11 13 -7 2 -7 12 0 31
7 18 7 26 1 22 -13 -8 -13 1 1 27 8 15 8 19 0 14 -14 -9 -14 9 0 36 8 15 8 19
0 14 -6 -4 -11 -4 -11 -1 0 4 5 16 11 27 8 15 8 19 0 14 -14 -9 -14 0 0 26 8
15 8 19 -1 13 -14 -9 -10 27 5 37 6 5 5 8 -3 8 -10 0 -10 5 -1 21 8 15 8 19 0
15 -14 -9 -14 0 0 26 8 15 8 19 0 14 -14 -9 -14 0 0 26 8 15 8 19 -1 13 -14
-9 -10 26 5 38 6 4 6 10 -2 15 -13 8 -11 41 3 64 4 6 3 8 -3 5 -7 -4 -10 3 -9
17 0 13 4 22 9 19 4 -2 7 0 7 6 0 5 -5 11 -11 13 -7 2 -7 12 0 31 7 18 7 26 1
22 -13 -8 -13 1 1 27 8 15 8 19 0 14 -6 -4 -11 -2 -11 3 0 6 6 11 13 11 9 0 9
2 0 8 -13 8 -11 41 3 64 4 6 3 8 -3 5 -7 -4 -10 3 -9 17 0 13 4 22 9 19 4 -2
7 0 7 6 0 5 -5 11 -11 13 -7 2 -7 12 0 31 7 18 7 26 1 22 -13 -8 -13 1 1 27 8
15 8 19 0 14 -6 -4 -11 -2 -11 3 0 6 6 11 13 11 9 0 9 2 0 8 -13 8 -11 41 3
64 4 6 3 8 -3 5 -7 -4 -10 3 -9 17 0 13 4 22 9 19 4 -2 7 1 7 6 0 6 -5 11 -10
11 -11 0 -7 41 6 61 4 8 3 9 -4 5 -15 -9 -15 -1 -1 26 8 15 8 19 0 14 -14 -9
-14 0 0 26 8 15 8 19 -1 13 -14 -9 -10 27 5 37 6 5 5 8 -3 8 -10 0 -10 5 -1
21 8 15 8 19 0 15 -14 -9 -14 0 0 26 8 15 8 19 0 14 -14 -9 -14 0 0 26 7 13 7
18 1 14 -6 -4 -10 2 -9 14 1 11 4 20 7 20 3 0 6 9 6 19 0 11 -4 17 -8 15 -11
-7 -10 4 3 28 8 15 8 19 0 14 -6 -4 -11 -2 -11 3 0 6 6 11 13 11 9 0 9 2 0 8
-13 8 -11 41 3 64 4 6 3 8 -3 5 -7 -4 -10 3 -9 17 0 13 4 22 9 19 4 -2 7 0 7
6 0 5 -5 11 -11 13 -7 2 -7 12 0 31 7 18 7 26 1 22 -13 -8 -13 1 1 27 8 15 8
19 0 14 -14 -9 -14 0 0 26 8 15 8 19 0 14 -14 -9 -14 0 0 26 8 15 8 19 0 14
-6 -4 -11 -2 -11 3 0 6 6 11 13 11 9 0 9 2 0 8 -13 8 -11 41 3 64 4 6 3 8 -3
5 -7 -4 -10 3 -9 17 0 13 4 22 9 19 4 -2 7 0 7 6 0 5 -5 11 -11 13 -7 2 -7 12
0 31 7 18 7 26 1 22 -13 -8 -13 1 1 27 8 15 8 19 0 14 -14 -9 -14 9 0 36 8 15
8 19 0 14 -14 -9 -14 0 0 26 8 15 8 19 0 14 -14 -9 -14 0 0 26 8 15 8 19 -1
13 -14 -9 -10 27 5 37 6 5 5 8 -3 8 -10 0 -10 5 -1 21 8 15 8 19 0 15 -14 -9
-14 0 0 26 8 15 8 19 0 14 -14 -9 -14 0 0 26 8 15 8 19 -1 13 -14 -9 -10 26 5
38 6 4 6 10 -2 15 -13 8 -11 41 3 64 4 6 3 8 -3 5 -7 -4 -10 3 -9 17 0 13 4
22 9 19 4 -2 7 0 7 6 0 5 -5 11 -11 13 -7 2 -7 12 0 31 7 18 7 26 1 22 -13 -8
-13 1 1 27 8 15 8 19 0 14 -6 -4 -11 -2 -11 3 0 6 6 11 13 11 9 0 9 2 0 8 -13
8 -11 41 3 64 4 6 3 8 -3 5 -7 -4 -10 3 -9 17 0 13 4 22 9 19 4 -2 7 0 7 6 0
5 -5 11 -11 13 -7 2 -7 12 0 31 7 18 7 26 1 22 -13 -8 -13 1 1 27 8 15 8 19 0
14 -6 -4 -11 0 -11 9 0 10 5 13 12 9 7 -5 8 -3 2 7 -9 14 -10 19 -12 53 -2 16
-4 17 -19 5 -14 -12 -15 -12 -9 0 7 10 3 12 -14 6 -17 -6 -21 -4 -14 6 6 11 5
12 -7 2 -18 -14 -61 -13 -71 2 -5 6 -8 6 -8 -3 0 -13 -38 -10 -62 4 -8 5 -7 0
2 -11 13 -16 13 -18 0 -10 -8 5 -29 8 -47 7 -21 -2 -33 2 -33 10 0 10 -2 10
-9 0 -9 -14 -32 -13 -43 3 -4 6 -8 2 -8 -7 0 -10 -5 -18 -11 -18 -5 0 -7 5 -4
10 9 14 -8 12 -24 -2 -9 -8 -11 -8 -8 -2 4 7 0 15 -9 18 -8 3 -12 2 -9 -4 3
-6 -3 -10 -14 -10 -12 0 -21 6 -21 13 0 9 -2 9 -9 -1 -9 -14 -32 -13 -43 3 -4
6 -8 2 -8 -7 0 -10 -5 -18 -11 -18 -5 0 -7 5 -4 10 9 14 -8 12 -24 -2 -9 -8
-11 -8 -8 -2 4 7 0 15 -9 18 -9 3 -12 2 -8 -5 8 -14 -38 -8 -48 6 -4 6 -8 2
-8 -7 0 -10 -5 -18 -11 -18 -5 0 -7 5 -3 11 4 8 0 9 -15 4 -14 -4 -21 -2 -21
7 0 8 -3 9 -8 3 -10 -14 -95 -15 -104 -1 -6 8 -8 7 -8 -1 0 -7 -11 -13 -25
-13 -14 0 -25 6 -25 13 0 8 -3 9 -8 1 -9 -14 -43 -14 -61 0 -11 8 -13 8 -8 0
4 -7 0 -14 -8 -18 -8 -3 -17 -1 -20 4 -3 5 -22 7 -42 4 -27 -4 -33 -3 -27 8 6
10 5 11 -7 2 -18 -15 -82 -16 -73 -2 4 5 -6 2 -22 -8 -15 -11 -25 -13 -21 -6
5 6 4 12 0 12 -5 0 -15 -6 -22 -12 -10 -9 -12 -9 -7 -1 3 6 2 14 -4 18 -5 3
-10 2 -10 -3 0 -5 -13 -9 -30 -10 -17 0 -30 5 -30 11 0 8 -3 8 -9 -1 -9 -14
-32 -13 -43 3 -4 6 -8 2 -8 -7 0 -10 -5 -18 -11 -18 -5 0 -7 5 -4 10 9 14 -8
12 -24 -2 -9 -8 -11 -8 -8 -2 4 7 0 15 -9 18 -8 3 -12 2 -9 -4 3 -6 -3 -10
-14 -10 -12 0 -21 6 -21 13 0 9 -2 9 -9 -1 -9 -14 -32 -13 -43 3 -4 6 -8 2 -8
-7 0 -10 -5 -18 -11 -18 -5 0 -7 5 -4 10 9 14 -8 12 -24 -2 -9 -8 -11 -8 -8
-2 4 7 0 15 -9 18 -8 3 -13 2 -10 -3 8 -13 -48 -10 -56 3 -6 8 -8 7 -8 -1 0
-7 -11 -13 -25 -13 -14 0 -25 6 -25 13 0 8 -3 9 -8 1 -8 -13 -61 -13 -81 0
-10 6 -12 6 -7 -2 10 -16 -16 -15 -33 1 -11 10 -12 9 -7 -1 9 -15 -29 -13 -53
2 -11 7 -13 5 -8 -8 5 -13 3 -15 -11 -8 -9 5 -23 7 -31 4 -7 -2 -17 2 -22 9
-6 10 -9 11 -9 2 0 -7 -11 -13 -25 -13 -14 0 -25 6 -25 13 0 8 -3 9 -8 1 -4
-6 -23 -11 -42 -11 -19 0 -38 5 -42 11 -5 8 -8 7 -8 -2 0 -13 -38 -10 -62 4
-9 5 -9 2 1 -9 12 -16 12 -17 -5 -10 -10 3 -32 7 -48 6 -17 0 -34 5 -38 11 -5
7 -8 4 -8 -6 0 -10 -5 -18 -11 -18 -5 0 -7 5 -3 11 4 8 0 9 -15 4 -14 -4 -21
-2 -21 7 0 8 -3 9 -8 3 -10 -14 -95 -15 -104 -1 -6 8 -8 7 -8 -1 0 -7 -11 -13
-25 -13 -14 0 -25 6 -25 13 0 8 -3 9 -8 1 -9 -14 -43 -14 -61 0 -11 8 -13 8
-8 0 4 -7 0 -14 -8 -18 -8 -3 -17 -1 -20 4 -3 5 -22 7 -42 4 -27 -4 -33 -3
-27 8 6 10 5 11 -7 2 -18 -15 -82 -16 -73 -2 4 5 -6 2 -22 -8 -15 -11 -25 -13
-21 -6 5 6 4 12 0 12 -5 0 -15 -6 -22 -12 -10 -9 -12 -9 -7 -1 3 6 2 14 -4 18
-5 3 -10 2 -10 -4 0 -12 -63 -9 -72 4 -5 6 -8 2 -8 -7 0 -10 -5 -18 -11 -18
-5 0 -7 5 -3 11 4 8 0 9 -15 4 -14 -4 -21 -2 -21 7 0 8 -3 9 -8 3 -10 -14 -95
-15 -104 -1 -6 8 -8 7 -8 -1 0 -7 -11 -13 -25 -13 -14 0 -25 6 -25 13 0 8 -3
9 -8 1 -9 -14 -43 -14 -61 0 -11 8 -13 8 -8 0 4 -7 0 -14 -8 -18 -8 -3 -17 -1
-20 4 -3 5 -22 7 -42 4 -27 -4 -33 -3 -27 8 6 10 5 11 -7 2 -18 -15 -82 -16
-73 -2 4 5 -6 2 -22 -8 -15 -11 -25 -13 -21 -6 5 6 4 12 0 12 -5 0 -15 -6 -22
-12 -10 -9 -12 -9 -7 -1 3 6 2 14 -4 18 -5 3 -10 2 -10 -3 0 -13 -74 -11 -82
2 -5 8 -8 7 -8 -1 0 -7 -11 -13 -25 -13 -14 0 -25 6 -25 13 0 8 -3 9 -8 1 -8
-13 -61 -13 -81 0 -10 6 -12 6 -7 -2 10 -16 -16 -15 -33 1 -11 10 -12 9 -7 -1
9 -15 -29 -13 -53 2 -11 7 -13 5 -8 -8 5 -13 3 -15 -11 -8 -9 5 -23 7 -31 4
-7 -2 -17 2 -22 9 -6 10 -9 11 -9 2 0 -7 -11 -13 -25 -13 -14 0 -25 6 -25 13
0 8 -3 9 -8 1 -4 -6 -23 -11 -42 -11 -19 0 -38 5 -42 11 -5 8 -8 7 -8 -2 0
-13 -38 -10 -62 4 -8 5 -7 0 2 -11 13 -16 13 -18 0 -10 -8 5 -29 8 -47 7 -21
-2 -33 2 -33 10 0 10 -2 10 -9 0 -9 -14 -32 -13 -43 3 -4 6 -8 2 -8 -7 0 -10
-5 -18 -11 -18 -5 0 -7 5 -4 10 9 14 -8 12 -24 -2 -9 -8 -11 -8 -8 -2 4 7 0
15 -9 18 -8 3 -12 2 -9 -4 3 -6 -3 -10 -14 -10 -12 0 -21 6 -21 13 0 9 -2 9
-9 -1 -9 -14 -32 -13 -43 3 -4 6 -8 2 -8 -7 0 -10 -5 -18 -11 -18 -5 0 -7 5
-4 10 9 14 -8 12 -24 -2 -9 -8 -11 -8 -8 -2 4 7 0 15 -9 18 -9 3 -12 2 -8 -5
8 -14 -38 -8 -48 6 -4 6 -8 2 -8 -7 0 -10 -5 -18 -11 -18 -5 0 -7 5 -3 11 4 8
0 9 -15 4 -14 -4 -21 -2 -21 7 0 8 -3 9 -8 3 -10 -14 -95 -15 -104 -1 -6 8 -8
7 -8 -1 0 -7 -11 -13 -25 -13 -14 0 -25 6 -25 13 0 8 -3 8 -8 1 -10 -14 -84
-15 -75 0 4 7 1 6 -8 -1 -15 -12 -48 -11 -72 3 -8 5 -7 2 2 -9 12 -16 12 -17
-5 -10 -10 3 -32 7 -48 6 -17 0 -34 5 -38 11 -5 8 -8 7 -8 -1z m1425 -3601
c-3 -3 -11 0 -18 7 -9 10 -8 11 6 5 10 -3 15 -9 12 -12z m95 -74 c0 -6 -6 -5
-15 2 -8 7 -15 14 -15 16 0 2 7 1 15 -2 8 -4 15 -11 15 -16z"/>
<path d="M2325 5131 c-3 -5 -2 -12 3 -15 5 -3 9 1 9 9 0 17 -3 19 -12 6z"/>
<path d="M3090 2626 c0 -2 8 -10 18 -17 15 -13 16 -12 3 4 -13 16 -21 21 -21
13z"/>
<path d="M11989 2453 c-13 -16 -12 -17 4 -4 16 13 21 21 13 21 -2 0 -10 -8
-17 -17z"/>
<path d="M11750 2189 c0 -5 5 -7 10 -4 6 3 10 8 10 11 0 2 -4 4 -10 4 -5 0
-10 -5 -10 -11z"/>
<path d="M3660 2026 c0 -2 8 -10 18 -17 15 -13 16 -12 3 4 -13 16 -21 21 -21
13z"/>
<path d="M4524 1499 c-4 -7 -3 -9 4 -5 5 3 13 0 15 -6 4 -9 6 -10 6 -1 1 17
-16 25 -25 12z"/>
<path d="M4790 1400 c0 -5 5 -10 11 -10 5 0 7 5 4 10 -3 6 -8 10 -11 10 -2 0
-4 -4 -4 -10z"/>
<path d="M4970 1346 c0 -2 7 -7 16 -10 8 -3 12 -2 9 4 -6 10 -25 14 -25 6z"/>
<path d="M5450 1220 c0 -5 5 -10 11 -10 5 0 7 5 4 10 -3 6 -8 10 -11 10 -2 0
-4 -4 -4 -10z"/>
<path d="M6285 1079 c-4 -6 -5 -12 -2 -15 2 -3 7 2 10 11 7 17 1 20 -8 4z"/>
<path d="M8726 1081 c-3 -5 1 -11 9 -14 9 -4 12 -1 8 9 -6 16 -10 17 -17 5z"/>
</g>
</svg>
